<svg width="218" height="218" viewBox="0 0 218 218" fill="none" xmlns="http://www.w3.org/2000/svg">
<path fill-rule="evenodd" clip-rule="evenodd" d="M68.4485 8.91557C55.7416 8.91557 45.4406 19.2166 45.4406 31.9235V185.501C45.4406 198.208 55.7416 208.509 68.4486 208.509H149.839C162.546 208.509 172.847 198.208 172.847 185.501V31.9235C172.847 19.2166 162.546 8.91557 149.839 8.91557H68.4485ZM63.2718 27.3219H77.3641L88.6765 43.9656C89.027 44.4812 89.486 44.9003 90.0123 45.2002C90.6111 45.5406 91.2964 45.7282 92.0064 45.7282H124.815C126.164 45.7282 127.423 45.053 128.17 43.9296L139.198 27.3219H154.728V190.678H63.2718V27.3219Z" fill="white"/>
</svg>
