<svg width="331" height="331" viewBox="0 0 331 331" fill="none" xmlns="http://www.w3.org/2000/svg">
<path d="M193.175 12.957L206.824 25.7316C214.521 32.936 224.573 37.0997 235.111 37.4483L253.795 38.0665C275.112 38.7718 292.228 55.8885 292.933 77.2051L293.552 95.8893C293.9 106.427 298.064 116.479 305.268 124.176L318.043 137.825C332.617 153.397 332.617 177.603 318.043 193.175L305.268 206.824C298.064 214.521 293.9 224.573 293.552 235.111L292.933 253.795C292.228 275.112 275.112 292.228 253.795 292.933L235.111 293.552C224.573 293.9 214.521 298.064 206.824 305.268L193.175 318.043C177.603 332.617 153.397 332.617 137.825 318.043L124.176 305.268C116.479 298.064 106.427 293.9 95.8893 293.552L77.2051 292.933C55.8884 292.228 38.7718 275.112 38.0665 253.795L37.4483 235.111C37.0997 224.573 32.936 214.521 25.7316 206.824L12.957 193.175C-1.61745 177.603 -1.61744 153.397 12.957 137.825L25.7316 124.176C32.936 116.479 37.0997 106.427 37.4483 95.8893L38.0665 77.2051C38.7718 55.8884 55.8885 38.7718 77.2051 38.0665L95.8893 37.4483C106.427 37.0997 116.479 32.936 124.176 25.7316L137.825 12.957C153.397 -1.61744 177.603 -1.61744 193.175 12.957Z" fill="#050505" stroke="white" stroke-width="3"/>
</svg>
