<svg width="50" height="50" viewBox="0 0 50 50" fill="none" xmlns="http://www.w3.org/2000/svg">
<path fill-rule="evenodd" clip-rule="evenodd" d="M8.5 0C3.80558 0 0 3.80558 0 8.5V41.5C0 46.1944 3.80558 50 8.5 50H41.5C46.1944 50 50 46.1944 50 41.5V8.5C50 3.80558 46.1944 0 41.5 0H8.5ZM8 25.5C8 15.8442 15.8442 8 25.5 8C35.1558 8 43 15.8442 43 25.5C43 35.1558 35.1558 43 25.5 43C22.527 43 19.7437 42.2185 17.2909 40.9091L8.94366 42.9777C8.81452 43.0096 8.67928 43.0071 8.55141 42.9705C8.42354 42.9338 8.3075 42.8643 8.21488 42.7688C8.12226 42.6734 8.05629 42.5553 8.02354 42.4263C7.99079 42.2974 7.99241 42.1622 8.02824 42.0341L10.2707 34.0286C8.85118 31.5001 8 28.6037 8 25.5ZM41.4783 25.5C41.4783 16.6667 34.3333 9.52174 25.5 9.52174C16.6667 9.52174 9.52174 16.6667 9.52174 25.5C9.52174 28.4599 10.3288 31.2245 11.73 33.6006C11.782 33.6892 11.8156 33.7874 11.8286 33.8893C11.8416 33.9912 11.8339 34.0947 11.8058 34.1935L9.8457 41.187L17.1557 39.3755C17.3432 39.329 17.5414 39.3555 17.71 39.4498C20.0157 40.7399 22.6681 41.4783 25.5 41.4783C34.3333 41.4783 41.4783 34.3333 41.4783 25.5ZM17.3846 17.1676C17.9568 16.551 18.6533 16.3696 19.1411 16.3696C19.4473 16.3696 19.7559 16.3729 20.0372 16.3859H20.0387C20.0399 16.386 20.0436 16.3856 20.0497 16.3851C20.1134 16.3793 20.4351 16.3503 20.7951 16.5182C21.1892 16.702 21.4907 17.083 21.7135 17.6119V17.6134C21.8453 17.9263 22.0397 18.3934 22.2418 18.8791C22.3298 19.0905 22.4192 19.3054 22.5056 19.5126L22.5503 19.6201C22.6758 19.9212 22.7924 20.201 22.886 20.4221C22.9537 20.5821 23.0183 20.7284 23.0523 20.8053C23.0706 20.8468 23.0801 20.8681 23.0762 20.8605V20.862C23.235 21.1773 23.3878 21.7766 23.1134 22.3213C23.0962 22.3553 23.0793 22.3896 23.0621 22.4242C22.9416 22.6679 22.8127 22.9283 22.5605 23.2189C22.4978 23.2911 22.4316 23.3715 22.3619 23.4559C22.206 23.645 22.0333 23.8545 21.8457 24.0392L21.8443 24.0407C21.8232 24.0614 21.8201 24.0626 21.8184 24.0632C21.817 24.0638 21.8165 24.0639 21.8086 24.0734C22.074 24.5193 22.9153 25.8469 24.1165 26.9043V26.9058C24.9235 27.6172 25.6609 28.0765 26.2505 28.3874C26.6177 28.5812 26.9108 28.7074 27.1583 28.814C27.3082 28.8786 27.4413 28.9359 27.5642 28.9967C27.6506 29.0395 27.6495 29.0395 27.6486 29.0395C27.6484 29.0395 27.6483 29.0395 27.6489 29.0398C27.9123 28.74 28.7762 27.7203 28.9908 27.4022C29.2172 27.0666 29.6061 26.7825 29.9998 26.7379C30.3629 26.6968 30.6233 26.792 30.8369 26.8701C30.8549 26.8767 30.8726 26.8832 30.89 26.8895C31.2027 27.001 31.688 27.2327 32.2547 27.5034C32.329 27.5389 32.4047 27.5751 32.4816 27.6117C33.1457 27.9282 33.8079 28.2515 34.0405 28.3666C34.1412 28.4165 34.2409 28.4552 34.3391 28.4934C34.6494 28.6139 34.9454 28.7289 35.2145 29.1706C35.3607 29.4106 35.3688 29.5469 35.3777 29.6968C35.3791 29.7201 35.3805 29.7436 35.3824 29.768C35.3968 29.9493 35.3943 30.1451 35.375 30.3669C35.3362 30.8106 35.2291 31.3498 35.0183 31.9332C34.7241 32.7471 34.0569 33.2827 33.3762 33.7135C32.6954 34.1443 32.0074 34.4447 31.3819 34.5368C30.5461 34.66 29.4336 34.7183 28.2121 34.3347C27.553 34.1278 26.683 33.8443 25.5802 33.3747C23.1856 32.3535 21.2563 30.6837 19.8841 29.239C19.198 28.5166 18.6519 27.8493 18.2613 27.3412C17.8708 26.8332 17.5782 26.4095 17.5985 26.4362V26.4347H17.5971C17.5887 26.4237 17.578 26.4098 17.5651 26.393C17.2473 25.979 15.6087 23.8447 15.6087 21.3865C15.6087 19.0498 16.9081 17.6728 17.3285 17.2273C17.3495 17.2051 17.3682 17.1852 17.3846 17.1676ZM19.9659 17.9062C19.7236 17.8949 19.4344 17.8913 19.1411 17.8913C19.0293 17.8913 18.7532 17.9312 18.5006 18.2034C18.4599 18.2473 18.4162 18.2928 18.3704 18.3406C17.8753 18.8572 17.1304 19.6345 17.1304 21.3865C17.1304 23.1952 18.574 25.2031 18.8097 25.5149L18.8112 25.5163C18.859 25.5792 18.9102 25.6514 18.9732 25.7402C19.0852 25.8982 19.2345 26.1087 19.468 26.4124C19.8335 26.8878 20.3471 27.5162 20.9883 28.1913C22.2706 29.5414 24.0656 31.0741 26.1776 31.9748C27.219 32.4183 28.0233 32.6804 28.6683 32.8828C29.5986 33.1749 30.4456 33.1365 31.159 33.0314C31.3962 32.9965 32.0369 32.7612 32.5633 32.4281C33.0897 32.095 33.5071 31.6377 33.5872 31.4161C33.7508 30.9632 33.8325 30.5402 33.8592 30.2346C33.8688 30.1245 33.8662 30.0519 33.8636 29.985C33.8439 29.9847 33.7949 29.9576 33.7089 29.9102C33.6287 29.8659 33.5164 29.8039 33.3658 29.7294C33.1494 29.6223 32.4837 29.2974 31.8277 28.9848C31.1717 28.6723 30.436 28.343 30.3773 28.3221H30.3758V28.3206C30.2796 28.286 30.2584 28.2798 30.2469 28.2764C30.243 28.2753 30.2403 28.2745 30.2361 28.273C29.849 28.8408 29.0423 29.7619 28.7708 30.0697L28.7694 30.0712C28.5654 30.3018 28.2449 30.5273 27.8733 30.572C27.5016 30.6166 27.1819 30.5042 26.8895 30.3595C26.8573 30.3435 26.7959 30.3175 26.7108 30.2815C26.4701 30.1796 26.0393 29.9972 25.5401 29.7338C24.8643 29.3773 24.0184 28.8476 23.1104 28.0471C21.6686 26.7777 20.7408 25.2676 20.4592 24.7897C20.2478 24.4307 20.1863 23.9498 20.3181 23.5993C20.437 23.283 20.6207 23.1065 20.7412 22.9908C20.754 22.9785 20.766 22.9669 20.7773 22.9558C20.8605 22.8738 20.9899 22.7195 21.1355 22.5458C21.2234 22.4409 21.3172 22.329 21.4103 22.2217C21.5417 22.0704 21.581 21.9903 21.6762 21.7966C21.6987 21.7508 21.7244 21.6987 21.7551 21.6377C21.7607 21.6266 21.7653 21.6232 21.768 21.6225C21.7622 21.6188 21.7471 21.6031 21.7179 21.5456L21.7165 21.5441V21.5426C21.6583 21.4263 21.6071 21.3051 21.5251 21.1109C21.5124 21.0808 21.499 21.0489 21.4846 21.015C21.3947 20.8027 21.2858 20.5411 21.1684 20.2593C21.1463 20.2062 21.1239 20.1524 21.1012 20.0981C21.0262 19.918 20.9488 19.7321 20.8721 19.548C20.6568 19.031 20.4472 18.5276 20.3106 18.2034C20.2393 18.034 20.1871 17.9519 20.1591 17.9149C20.1315 17.9148 20.0732 17.9115 19.9659 17.9062Z" fill="#464646"/>
</svg>
