<svg width="50" height="50" viewBox="0 0 50 50" fill="none" xmlns="http://www.w3.org/2000/svg">
<path fill-rule="evenodd" clip-rule="evenodd" d="M8.5 0C3.80558 0 0 3.80558 0 8.5V41.5C0 46.1944 3.80558 50 8.5 50H41.5C46.1944 50 50 46.1944 50 41.5V8.5C50 3.80558 46.1944 0 41.5 0H8.5ZM32.5559 12.536C33.5662 12.176 34.4299 12 35.1986 12C35.856 12 36.4604 12.1275 36.9897 12.3798C38.4035 13.0486 39.1458 14.4988 38.9761 16.2598C38.7266 18.8298 36.5173 33.4037 35.9273 35.1959L35.9262 35.1993C35.5189 36.435 34.6736 39 32.1586 39C30.8415 39 29.5047 38.548 28.2955 37.6936C27.4346 37.087 21.6701 33.2683 20.9643 32.8283C19.8854 32.1561 19.1578 31.0588 19.0196 29.8922C18.9971 29.7033 18.992 29.5147 18.9998 29.328C18.0828 29.8335 16.9122 30.1201 15.7491 30.1201C15.1546 30.1201 14.5766 30.0443 14.0326 29.8966C12.7504 29.5477 10.5403 28.8854 9.6098 28.5576C7.87912 27.9465 7 26.8856 7 25.4023C7 23.1656 9.23297 22.2271 10.4336 21.7226L10.4351 21.7219L10.5137 21.6889C12.9553 20.6642 31.005 13.0885 32.5559 12.536ZM36.0173 14.3849C35.7836 14.2727 35.5077 14.2222 35.1986 14.2222C34.6603 14.2222 34.0188 14.3747 33.3175 14.6258C31.8026 15.1647 12.4346 23.2961 11.3153 23.7661C10.2555 24.2117 9.24983 24.6979 9.24983 25.4023C9.24983 25.8979 9.5478 26.1746 10.3671 26.4635C11.2189 26.7635 13.3642 27.407 14.6319 27.7525C14.996 27.8514 15.3749 27.8958 15.7491 27.8958C16.6268 27.8958 17.4725 27.6541 18.0187 27.3185C18.8436 26.8119 28.3694 20.5098 29.0527 19.9576C29.2269 19.8165 29.3951 19.758 29.5356 19.758C29.9436 19.758 30.138 20.255 29.7222 20.6673C29.5112 20.8759 28.4468 21.901 27.1574 23.1429C25.0337 25.1884 22.2996 27.8217 21.7633 28.3623C20.717 29.4178 21.4604 30.5091 22.1628 30.9469C22.964 31.4457 28.7328 35.2705 29.6015 35.8838C30.4702 36.4982 31.3517 36.7779 32.1586 36.7779C32.9655 36.7779 33.3893 35.7279 33.7916 34.508C34.2614 33.0813 36.4653 18.8526 36.7373 16.0493C36.8193 15.1994 36.5489 14.6371 36.0173 14.3849Z" fill="#464646"/>
</svg>
