<svg width="20" height="20" viewBox="0 0 20 20" fill="none" xmlns="http://www.w3.org/2000/svg">
<path d="M4.5 6.5C4.5 4.84315 5.84315 3.5 7.5 3.5H11.9895C12.4246 3.5 12.8454 3.6547 13.1769 3.93644L14.4524 5.02064L15.7394 6.30763C16.1197 6.68791 16.3333 7.20368 16.3333 7.74148V13.5C16.3333 15.1569 14.9902 16.5 13.3333 16.5H7.5C5.84315 16.5 4.5 15.1569 4.5 13.5V6.5Z" stroke="#AEB1BB"/>
<path d="M11.9875 9.55279C12.3561 9.73705 12.3561 10.263 11.9875 10.4472L9.22361 11.8292C8.89116 11.9954 8.5 11.7537 8.5 11.382L8.5 8.61803C8.5 8.24634 8.89116 8.00459 9.22361 8.17082L11.9875 9.55279Z" stroke="#AEB1BB"/>
</svg>
