<svg width="20" height="20" viewBox="0 0 20 20" fill="none" xmlns="http://www.w3.org/2000/svg">
<path d="M14.1557 10.0178C14.1557 10.0178 14.5083 16.7118 7.89384 16.7118C7.47381 16.7118 5.19625 16.7118 3.74015 16.7118L2.75073 16.7117C2.69431 16.7117 2.6793 16.6341 2.73065 16.6107C3.25781 16.3706 4.60213 15.7445 5.5353 15.1887C6.71893 14.4838 6.88429 10.5412 7.89384 9.28794C8.90339 8.03468 10.8181 8.23485 10.8181 8.23485M14.1557 10.0178L17.0569 4.9962C17.2227 4.70915 17.1118 4.3417 16.8148 4.19432L14.3324 2.96233C14.0563 2.82528 13.7212 2.93065 13.5732 3.20108L10.8181 8.23485M14.1557 10.0178L10.8181 8.23485" stroke="#AEB1BB" stroke-linecap="round"/>
</svg>
