<svg width="10" height="13" viewBox="0 0 10 13" fill="none" xmlns="http://www.w3.org/2000/svg">
<path d="M5.06086 4.4817H3.03043C1.90909 4.4817 1 3.5912 1 2.4928C1 1.3944 1.90909 0.503906 3.03043 0.503906H5.06086V4.4817Z" stroke="#009DFF" stroke-miterlimit="10" stroke-linecap="round" stroke-linejoin="round"/>
<path d="M5.06086 8.45826H3.03043C1.90909 8.45826 1 7.56776 1 6.46936C1 5.37096 1.90909 4.48047 3.03043 4.48047H5.06086V8.45826Z" stroke="#009DFF" stroke-miterlimit="10" stroke-linecap="round" stroke-linejoin="round"/>
<path d="M3.03043 12.4387C1.90909 12.4387 1 11.5482 1 10.4498C1 9.35143 1.90909 8.46094 3.03043 8.46094H5.06086V10.4498C5.06086 11.5482 4.15177 12.4387 3.03043 12.4387Z" stroke="#009DFF" stroke-miterlimit="10" stroke-linecap="round" stroke-linejoin="round"/>
<path d="M7.09098 4.4817H5.06055V0.503906H7.09098C8.21232 0.503906 9.12141 1.3944 9.12141 2.4928C9.12141 3.5912 8.21232 4.4817 7.09098 4.4817Z" stroke="#009DFF" stroke-miterlimit="10" stroke-linecap="round" stroke-linejoin="round"/>
<path d="M7.2271 8.4587C8.27372 8.4587 9.12217 7.6276 9.12217 6.6024C9.12217 5.57719 8.27372 4.74609 7.2271 4.74609C6.18048 4.74609 5.33203 5.57719 5.33203 6.6024C5.33203 7.6276 6.18048 8.4587 7.2271 8.4587Z" stroke="#009DFF" stroke-miterlimit="10" stroke-linecap="round" stroke-linejoin="round"/>
</svg>
