<svg width="20" height="20" viewBox="0 0 20 20" fill="none" xmlns="http://www.w3.org/2000/svg">
<path d="M10.4998 7.54281H8.2499C7.00736 7.54281 6 6.52583 6 5.27141C6 4.01698 7.00736 3 8.2499 3H10.4998V7.54281Z" stroke="#AEB1BB" stroke-miterlimit="10" stroke-linecap="round" stroke-linejoin="round"/>
<path d="M10.4998 12.0858H8.2499C7.00736 12.0858 6 11.0688 6 9.81438C6 8.55995 7.00736 7.54297 8.2499 7.54297H10.4998V12.0858Z" stroke="#AEB1BB" stroke-miterlimit="10" stroke-linecap="round" stroke-linejoin="round"/>
<path d="M8.2499 16.6288C7.00736 16.6288 6 15.6118 6 14.3573C6 13.1029 7.00736 12.0859 8.2499 12.0859H10.4998V14.3573C10.4998 15.6118 9.49245 16.6288 8.2499 16.6288Z" stroke="#AEB1BB" stroke-miterlimit="10" stroke-linecap="round" stroke-linejoin="round"/>
<path d="M12.7499 7.54281H10.5V3H12.7499C13.9924 3 14.9998 4.01698 14.9998 5.27141C14.9998 6.52583 13.9924 7.54281 12.7499 7.54281Z" stroke="#AEB1BB" stroke-miterlimit="10" stroke-linecap="round" stroke-linejoin="round"/>
<path d="M12.9007 12.0837C14.0604 12.0837 15.0006 11.1346 15.0006 9.96373C15.0006 8.7929 14.0604 7.84375 12.9007 7.84375C11.7409 7.84375 10.8008 8.7929 10.8008 9.96373C10.8008 11.1346 11.7409 12.0837 12.9007 12.0837Z" stroke="#AEB1BB" stroke-miterlimit="10" stroke-linecap="round" stroke-linejoin="round"/>
</svg>
