<svg width="69" height="22" viewBox="0 0 69 22" fill="none" xmlns="http://www.w3.org/2000/svg">
<path d="M23.4175 7.16441L19.4887 20.949H15.4021L8.64062 0.775391L12.2811 0.775391L17.6204 15.8616L17.7823 15.3849L21.6539 0.775391H25.3103L29.1818 15.3849H29.2965L32.5658 0.775391H37.0539L31.5621 20.949H27.4755L23.5466 7.16441H23.4175Z" fill="url(#paint0_linear_652_5729)"/>
<path d="M44.209 8.66031C42.3736 8.66031 41.0544 10.0164 40.911 11.8898H47.4353C47.3492 9.97446 46.0731 8.66031 44.209 8.66031ZM47.4926 16.3635H51.3355C50.8766 19.2994 48.1235 21.2706 44.3237 21.2706C39.5919 21.2706 36.7528 18.3207 36.7528 13.5255C36.7528 8.74419 39.6205 5.64055 44.166 5.64055C48.6397 5.64055 51.4645 8.5904 51.4645 13.148V14.3922H40.868V14.6439C40.868 16.7829 42.2589 18.2508 44.3954 18.2508C45.9297 18.2508 47.1055 17.5099 47.4926 16.3635Z" fill="url(#paint1_linear_652_5729)"/>
<path d="M62.7636 21.1867C60.5124 21.1867 58.7917 20.1242 57.9457 18.3766H57.8597V20.949H53.7301V0.775391H57.917V8.56244H58.0031C58.8491 6.78694 60.5554 5.72443 62.7492 5.72443C66.6208 5.72443 69.001 8.61837 69.001 13.4556C69.001 18.2788 66.6351 21.1867 62.7636 21.1867ZM61.3153 8.99583C59.2936 8.99583 57.9027 10.7713 57.9027 13.4556C57.9027 16.1678 59.2792 17.9013 61.3153 17.9013C63.4088 17.9013 64.7137 16.1957 64.7137 13.4556C64.7137 10.7294 63.3945 8.99583 61.3153 8.99583Z" fill="url(#paint2_linear_652_5729)"/>
<path d="M14.8695 20.949L13.2922 16.0559H6.02235L4.44507 20.949H0L7.1838 0.775391H12.2741L19.4723 20.949H14.8695ZM9.60708 4.63397L6.95438 12.8964H12.3602L9.70745 4.63397H9.60708Z" fill="white"/>
<defs>
<linearGradient id="paint0_linear_652_5729" x1="17.0324" y1="19.9361" x2="23.9512" y2="10.6024" gradientUnits="userSpaceOnUse">
<stop stop-color="#252528"/>
<stop offset="1" stop-color="white"/>
</linearGradient>
<linearGradient id="paint1_linear_652_5729" x1="17.0324" y1="19.9361" x2="23.9512" y2="10.6024" gradientUnits="userSpaceOnUse">
<stop stop-color="#252528"/>
<stop offset="1" stop-color="white"/>
</linearGradient>
<linearGradient id="paint2_linear_652_5729" x1="17.0324" y1="19.9361" x2="23.9512" y2="10.6024" gradientUnits="userSpaceOnUse">
<stop stop-color="#252528"/>
<stop offset="1" stop-color="white"/>
</linearGradient>
</defs>
</svg>
