<svg width="20" height="20" viewBox="0 0 20 20" fill="none" xmlns="http://www.w3.org/2000/svg">
<path d="M14.5673 18.2099L9.77367 13.4162C9.77728 13.4059 9.78165 13.3943 9.78695 13.3815C9.84362 13.2443 9.96881 13.0527 10.162 12.8595L12.8577 10.1639C13.0509 9.97062 13.2425 9.84542 13.3796 9.78875C13.3925 9.78345 13.404 9.77907 13.4143 9.77547L18.2079 14.5691C18.2043 14.5795 18.2 14.591 18.1947 14.6038C18.138 14.741 18.0128 14.9326 17.8196 15.1258L15.1239 17.8215C14.9307 18.0147 14.7391 18.1399 14.602 18.1966C14.5891 18.2019 14.5776 18.2063 14.5673 18.2099Z" stroke="#AEB1BB"/>
<path d="M6.52741 10.168L1.79002 5.43058C1.79354 5.42076 1.79775 5.40982 1.80278 5.39776C1.86009 5.2605 1.98599 5.06876 2.17962 4.87513L4.87523 2.17948C5.06887 1.98584 5.2606 1.85994 5.39786 1.80263C5.40992 1.7976 5.42086 1.79339 5.43068 1.78987L10.1681 6.52732C10.1645 6.53714 10.1603 6.54808 10.1553 6.56014C10.098 6.6974 9.97209 6.88914 9.77846 7.08277L7.08285 9.77842C6.88921 9.97206 6.69748 10.098 6.56022 10.1553C6.54816 10.1603 6.53723 10.1645 6.52741 10.168Z" stroke="#AEB1BB"/>
<path d="M5.83417 7.48229C6.02943 7.28703 6.02943 6.97045 5.83417 6.77518C5.63891 6.57992 5.32233 6.57992 5.12707 6.77518L5.83417 7.48229ZM13.2688 14.9171C13.4641 14.7218 13.4641 14.4052 13.2688 14.21C13.0736 14.0147 12.757 14.0147 12.5617 14.21L13.2688 14.9171ZM4.48636 8.83012L5.83417 7.48229L5.12707 6.77518L3.77926 8.12301L4.48636 8.83012ZM11.921 16.2649L13.2688 14.9171L12.5617 14.21L11.2139 15.5578L11.921 16.2649Z" fill="#AEB1BB"/>
<path d="M13.8824 3.01218C14.4436 2.45106 15.3533 2.45106 15.9144 3.01218L16.9144 4.01218C17.4755 4.57331 17.4755 5.48307 16.9144 6.0442L7.47648 15.4823C7.40353 15.5552 7.31137 15.606 7.21072 15.6287L3.62866 16.4354C3.54636 16.454 3.47282 16.3804 3.49136 16.2981L4.29813 12.716C4.3208 12.6154 4.37156 12.5232 4.44451 12.4503L13.8824 3.01218Z" stroke="#AEB1BB"/>
<path d="M11.9414 4.24609L15.6805 7.98522" stroke="#AEB1BB"/>
</svg>
