<svg width="20" height="20" viewBox="0 0 20 20" fill="none" xmlns="http://www.w3.org/2000/svg">
<path d="M14.5629 15.2609H5.4707V13.0288C5.48991 12.9882 5.52115 12.9286 5.56826 12.8555C5.67356 12.6921 5.85967 12.4591 6.17225 12.22C6.79226 11.7457 7.95387 11.2148 10.0702 11.2148C12.1873 11.2148 13.3178 11.7459 13.9076 12.2144C14.2051 12.4507 14.3773 12.6804 14.4729 12.8407C14.518 12.9164 14.5464 12.9772 14.5629 13.0167V15.2609Z" stroke="#AEB1BB"/>
<path d="M5.57527 12.9263L5.5 13.0462V13.1901V15.2614H1.78711V13.5188C1.80511 13.4766 1.83293 13.4162 1.87218 13.3432C1.95842 13.183 2.09746 12.9667 2.30514 12.7505C2.71124 12.3278 3.39908 11.8828 4.54438 11.8828C5.14571 11.8828 5.4479 11.9898 5.58982 12.0831C5.70581 12.1593 5.73718 12.2391 5.74533 12.3307C5.75571 12.4474 5.72369 12.5903 5.67072 12.7266C5.64594 12.7903 5.62011 12.8436 5.60101 12.88C5.59157 12.8979 5.58406 12.9112 5.57955 12.919L5.57533 12.9262L5.57527 12.9263ZM1.76136 13.5839C1.7613 13.5841 1.76132 13.584 1.76144 13.5836L1.76136 13.5839Z" stroke="#AEB1BB"/>
<path d="M14.6728 12.9263L14.748 13.0462V13.1901V15.2614H18.4609V13.5188C18.4429 13.4766 18.4151 13.4162 18.3759 13.3432C18.2896 13.183 18.1506 12.9667 17.9429 12.7505C17.5368 12.3278 16.849 11.8828 15.7037 11.8828C15.1023 11.8828 14.8001 11.9898 14.6582 12.0831C14.5422 12.1593 14.5109 12.2391 14.5027 12.3307C14.4923 12.4474 14.5244 12.5903 14.5773 12.7266C14.6021 12.7903 14.6279 12.8436 14.647 12.88C14.6565 12.8979 14.664 12.9112 14.6685 12.919L14.6727 12.9262L14.6728 12.9263ZM18.4867 13.5839C18.4868 13.5841 18.4867 13.584 18.4866 13.5836L18.4867 13.5839Z" stroke="#AEB1BB"/>
<circle cx="9.99212" cy="6.74017" r="2.0097" stroke="#AEB1BB"/>
<circle cx="15.492" cy="8.13064" r="1.36893" stroke="#AEB1BB"/>
<circle cx="4.59939" cy="8.13064" r="1.36893" stroke="#AEB1BB"/>
</svg>
