<svg width="24" height="24" viewBox="0 0 24 24" fill="none" xmlns="http://www.w3.org/2000/svg">
<path d="M12.5814 1.38586L15.0647 6.48297C15.4424 7.25826 16.1643 7.81711 17.023 7.95845L22.4336 8.84902C22.9254 8.92997 23.2327 9.64765 22.7893 10.1099L18.9134 14.1507C18.3165 14.773 18.0505 15.6442 18.1798 16.4931L19.0405 22.1406C19.0893 22.4606 18.9576 22.7192 18.7608 22.8685C18.5676 23.015 18.3329 23.0463 18.104 22.9243L13.2254 20.3245C12.4571 19.9152 11.5429 19.9152 10.7746 20.3245L5.89596 22.9243C5.66705 23.0463 5.43237 23.015 5.23924 22.8685C5.04236 22.7192 4.91069 22.4606 4.95947 22.1406L5.82017 16.4931C5.94954 15.6442 5.68355 14.773 5.08659 14.1507L1.2107 10.1099C0.767294 9.64765 1.07459 8.92997 1.56638 8.84902L6.977 7.95845C7.83567 7.81711 8.55762 7.25826 8.93533 6.48297L11.4186 1.38586C11.6692 0.871381 12.3308 0.871379 12.5814 1.38586Z" stroke="#54555D" stroke-width="2"/>
</svg>
