<svg width="24" height="24" viewBox="0 0 24 24" fill="none" xmlns="http://www.w3.org/2000/svg">
<path d="M4.0075 4.4974C3.5637 3.86098 4.01907 2.98828 4.79495 2.98828H8.25531C8.56685 2.98828 8.85903 3.13946 9.03898 3.39378L20.4558 19.5292C20.9057 20.165 20.451 21.0437 19.6722 21.0437H16.0468C15.733 21.0437 15.4389 20.8902 15.2594 20.6328L4.0075 4.4974Z" fill="#AFAFB6"/>
<path d="M19.7834 4.08354C20.1505 3.65194 19.8438 2.98828 19.2772 2.98828H18.3638C18.169 2.98828 17.9839 3.07381 17.8576 3.22225L3.62843 19.9484C3.26126 20.38 3.56799 21.0437 4.13465 21.0437H5.04796C5.24284 21.0437 5.4279 20.9581 5.55417 20.8097L19.7834 4.08354Z" fill="#AFAFB6"/>
</svg>
