<svg width="15" height="14" viewBox="0 0 15 14" fill="none" xmlns="http://www.w3.org/2000/svg">
<path d="M12.511 10.4254L7.39532 12.9448C7.2143 13.034 7.00087 13.034 6.81985 12.9448L1.70421 10.4254C1.23401 10.1938 1.23401 9.53664 1.70421 9.30507L6.81985 6.78562C7.00087 6.69646 7.2143 6.69646 7.39532 6.78562L12.511 9.30507C12.9812 9.53664 12.9812 10.1938 12.511 10.4254Z" stroke="#9B69FF" stroke-width="0.5"/>
<path d="M12.511 7.56993L7.39532 10.0894C7.2143 10.1785 7.00087 10.1785 6.81985 10.0894L1.70421 7.56993C1.23401 7.33835 1.23401 6.68117 1.70421 6.4496L6.81985 3.93015C7.00087 3.84099 7.2143 3.84099 7.39532 3.93015L12.511 6.4496C12.9812 6.68117 12.9812 7.33835 12.511 7.56993Z" stroke="#9B69FF" stroke-width="0.5"/>
<path d="M6.70939 0.74884C6.96006 0.625386 7.25511 0.625387 7.50578 0.748841L12.6214 3.26829C13.2777 3.5915 13.2777 4.51396 12.6214 4.83717L7.50578 7.35662C7.25511 7.48008 6.96006 7.48008 6.70939 7.35662L1.59376 4.83717C0.937497 4.51396 0.937499 3.5915 1.59376 3.26829L6.70939 0.74884Z" fill="#9B69FF"/>
</svg>
