<svg width="69" height="22" viewBox="0 0 69 22" fill="none" xmlns="http://www.w3.org/2000/svg">
<path d="M23.4166 6.55284L19.4877 20.6909H15.4011L8.63965 0L12.2801 0L17.6194 15.473L17.7814 14.9841L21.6529 0H25.3093L29.1808 14.9841H29.2955L32.5648 0H37.0529L31.5611 20.6909H27.4745L23.5456 6.55284H23.4166Z" fill="url(#paint0_linear_1_5932)"/>
<path d="M44.208 8.08709C42.3726 8.08709 41.0535 9.47796 40.9101 11.3994H47.4343C47.3483 9.43494 46.0721 8.08709 44.208 8.08709ZM47.4916 15.9878H51.3345C50.8756 18.9989 48.1226 21.0207 44.3227 21.0207C39.5909 21.0207 36.7518 17.9952 36.7518 13.077C36.7518 8.17313 39.6196 4.98991 44.165 4.98991C48.6388 4.98991 51.4635 8.0154 51.4635 12.6899V13.966H40.8671V14.2241C40.8671 16.4179 42.2579 17.9235 44.3944 17.9235C45.9287 17.9235 47.1045 17.1636 47.4916 15.9878Z" fill="url(#paint1_linear_1_5932)"/>
<path d="M62.7626 20.9347C60.5114 20.9347 58.7907 19.8449 57.9447 18.0526H57.8587V20.6909H53.7291V0H57.916V7.98672H58.0021C58.8481 6.16569 60.5544 5.07594 62.7483 5.07594C66.6198 5.07594 69 8.04408 69 13.0053C69 17.9522 66.6341 20.9347 62.7626 20.9347ZM61.3144 8.43123C59.2926 8.43123 57.9017 10.2523 57.9017 13.0053C57.9017 15.787 59.2782 17.5651 61.3144 17.5651C63.4079 17.5651 64.7127 15.8157 64.7127 13.0053C64.7127 10.2092 63.3935 8.43123 61.3144 8.43123Z" fill="url(#paint2_linear_1_5932)"/>
<path d="M14.8695 20.6909L13.2922 15.6723H6.02235L4.44507 20.6909H0L7.1838 0H12.2741L19.4723 20.6909H14.8695ZM9.60708 3.95752L6.95438 12.4318H12.3602L9.70745 3.95752H9.60708Z" fill="white"/>
<defs>
<linearGradient id="paint0_linear_1_5932" x1="17.0314" y1="19.652" x2="24.178" y2="10.2521" gradientUnits="userSpaceOnUse">
<stop stop-color="#AFAFB6"/>
<stop offset="1" stop-color="white"/>
</linearGradient>
<linearGradient id="paint1_linear_1_5932" x1="17.0314" y1="19.652" x2="24.178" y2="10.2521" gradientUnits="userSpaceOnUse">
<stop stop-color="#AFAFB6"/>
<stop offset="1" stop-color="white"/>
</linearGradient>
<linearGradient id="paint2_linear_1_5932" x1="17.0314" y1="19.652" x2="24.178" y2="10.2521" gradientUnits="userSpaceOnUse">
<stop stop-color="#AFAFB6"/>
<stop offset="1" stop-color="white"/>
</linearGradient>
</defs>
</svg>
