<svg width="9" height="14" viewBox="0 0 9 14" fill="none" xmlns="http://www.w3.org/2000/svg">
<g clip-path="url(#clip0_0_104)">
<path d="M2.25053 14C3.49228 14 4.50008 12.9547 4.50008 11.6667V9.33337H2.25053C1.00877 9.33337 0.000976562 10.3787 0.000976562 11.6667C0.000976562 12.9547 1.00877 14 2.25053 14Z" fill="#0ACF83"/>
<path d="M0.000976562 6.99996C0.000976562 5.71196 1.00877 4.66663 2.25053 4.66663H4.50008V9.33329H2.25053C1.00877 9.33329 0.000976562 8.28796 0.000976562 6.99996Z" fill="#A259FF"/>
<path d="M0.000976562 2.33333C0.000976562 1.04533 1.00877 0 2.25053 0H4.50008V4.66667H2.25053C1.00877 4.66667 0.000976562 3.62133 0.000976562 2.33333Z" fill="#F24E1E"/>
<path d="M4.5 0H6.74955C7.9913 0 8.9991 1.04533 8.9991 2.33333C8.9991 3.62133 7.9913 4.66667 6.74955 4.66667H4.5V0Z" fill="#FF7262"/>
<path d="M8.9991 6.99996C8.9991 8.28796 7.9913 9.33329 6.74955 9.33329C5.5078 9.33329 4.5 8.28796 4.5 6.99996C4.5 5.71196 5.5078 4.66663 6.74955 4.66663C7.9913 4.66663 8.9991 5.71196 8.9991 6.99996Z" fill="#1ABCFE"/>
</g>
<defs>
<clipPath id="clip0_0_104">
<rect width="9" height="14" fill="white"/>
</clipPath>
</defs>
</svg>
