<svg width="184" height="184" viewBox="0 0 184 184" fill="none" xmlns="http://www.w3.org/2000/svg">
<path fill-rule="evenodd" clip-rule="evenodd" d="M154.505 7.19534C158.262 8.77995 157.971 14.0207 154.334 15.8626C125.158 30.6379 105.388 59.1949 105.388 92C105.388 124.805 125.158 153.362 154.334 168.137C157.971 169.979 158.262 175.22 154.505 176.805C143.52 181.438 131.447 184 118.776 184C67.9659 184 26.7761 142.81 26.7761 92C26.7761 41.1898 67.9659 0 118.776 0C131.447 0 143.52 2.56166 154.505 7.19534ZM96.1194 92C96.1194 58.6667 114.354 29.6087 141.579 12.4484C134.342 10.3786 126.695 9.26866 118.776 9.26866C73.0849 9.26866 36.0448 46.3087 36.0448 92C36.0448 137.691 73.0849 174.731 118.776 174.731C126.695 174.731 134.342 173.621 141.579 171.552C114.354 154.391 96.1194 125.333 96.1194 92Z" fill="white"/>
</svg>
