<svg width="184" height="184" viewBox="0 0 184 184" fill="none" xmlns="http://www.w3.org/2000/svg">
<path d="M87.6848 4.6257C87.6848 2.071 89.7713 0 92.3452 0C94.9191 0 97.0056 2.071 97.0056 4.6257V31.0093C97.0056 33.564 94.9191 35.635 92.3452 35.635C89.7713 35.635 87.6848 33.564 87.6848 31.0093V4.6257Z" fill="white"/>
<path d="M151.202 26.5707C153.022 24.7642 155.973 24.7642 157.793 26.5707C159.613 28.3771 159.613 31.306 157.793 33.1124L138.997 51.7684C137.177 53.5749 134.226 53.5749 132.406 51.7684C130.586 49.962 130.586 47.0332 132.406 45.2267L151.202 26.5707Z" fill="white"/>
<path d="M179.34 87.3743C181.913 87.3743 184 89.4453 184 92C184 94.5547 181.913 96.6257 179.34 96.6257H152.758C150.184 96.6257 148.098 94.5547 148.098 92C148.098 89.4453 150.184 87.3743 152.758 87.3743H179.34Z" fill="white"/>
<path d="M157.793 150.761C159.613 152.568 159.613 155.496 157.793 157.303C155.973 159.109 153.022 159.109 151.202 157.303L132.406 138.647C130.586 136.84 130.586 133.912 132.406 132.105C134.226 130.299 137.177 130.299 138.997 132.105L157.793 150.761Z" fill="white"/>
<path d="M96.6604 179.374C96.6604 181.929 94.5739 184 92 184C89.4261 184 87.3396 181.929 87.3396 179.374V152.991C87.3396 150.436 89.4261 148.365 92 148.365C94.5739 148.365 96.6604 150.436 96.6604 152.991V179.374Z" fill="white"/>
<path d="M33.3609 157.303C31.5409 159.109 28.5901 159.109 26.7701 157.303C24.9501 155.496 24.9501 152.568 26.7701 150.761L45.5661 132.105C47.3861 130.299 50.3369 130.299 52.1569 132.105C53.9769 133.912 53.9769 136.84 52.1569 138.647L33.3609 157.303Z" fill="white"/>
<path d="M4.66041 96.6257C2.08654 96.6257 3.29469e-07 94.5547 0 92C-3.29469e-07 89.4453 2.08654 87.3743 4.66041 87.3743L31.242 87.3743C33.8159 87.3743 35.9024 89.4453 35.9024 92C35.9024 94.5547 33.8159 96.6257 31.242 96.6257H4.66041Z" fill="white"/>
<path d="M26.7701 33.1124C24.9501 31.306 24.9501 28.3771 26.7701 26.5707C28.5901 24.7642 31.5409 24.7642 33.3609 26.5707L52.1569 45.2267C53.9769 47.0332 53.9769 49.962 52.1569 51.7684C50.3369 53.5749 47.3861 53.5749 45.5661 51.7684L26.7701 33.1124Z" fill="white"/>
<path fill-rule="evenodd" clip-rule="evenodd" d="M135.67 92C135.67 115.939 116.118 135.345 92 135.345C67.8818 135.345 48.3302 115.939 48.3302 92C48.3302 68.0615 67.8818 48.6555 92 48.6555C116.118 48.6555 135.67 68.0615 135.67 92ZM126.349 92C126.349 110.829 110.97 126.093 92 126.093C73.0296 126.093 57.651 110.829 57.651 92C57.651 73.1709 73.0296 57.9069 92 57.9069C110.97 57.9069 126.349 73.1709 126.349 92Z" fill="white"/>
</svg>
