<svg width="218" height="218" viewBox="0 0 218 218" fill="none" xmlns="http://www.w3.org/2000/svg">
<path fill-rule="evenodd" clip-rule="evenodd" d="M8.91557 36.2375C8.91557 26.0719 17.1564 17.8311 27.3219 17.8311H190.966C201.131 17.8311 209.372 26.0719 209.372 36.2375V145.525C209.372 155.691 201.131 163.931 190.966 163.931H27.3219C17.1564 163.931 8.91557 155.691 8.91557 145.525V36.2375ZM27.0343 36.2375H191.253V127.119H27.0343V36.2375ZM109.144 154.441C114.147 154.441 118.203 150.385 118.203 145.381C118.203 140.378 114.147 136.322 109.144 136.322C104.14 136.322 100.084 140.378 100.084 145.381C100.084 150.385 104.14 154.441 109.144 154.441Z" fill="white"/>
<path d="M74.4881 181.475C83.8595 181.475 91.4565 173.878 91.4565 164.507C91.4565 163.924 91.4271 163.348 91.3698 162.781H126.63C126.573 163.348 126.544 163.924 126.544 164.507C126.544 173.878 134.141 181.475 143.512 181.475C144.193 181.475 144.865 181.435 145.525 181.357V199.881H72.7625V181.388C73.3299 181.446 73.9056 181.475 74.4881 181.475Z" fill="white"/>
</svg>
