<svg width="20" height="20" viewBox="0 0 20 20" fill="none" xmlns="http://www.w3.org/2000/svg">
<path d="M14.1557 10.0161C14.1557 10.0161 14.5083 16.7101 7.89384 16.7101C7.47381 16.7101 5.19625 16.7101 3.74015 16.71L2.75073 16.71C2.69431 16.71 2.6793 16.6324 2.73065 16.609C3.25781 16.3689 4.60213 15.7428 5.5353 15.187C6.71893 14.4821 6.88429 10.5395 7.89384 9.28623C8.90339 8.03297 10.8181 8.23314 10.8181 8.23314M14.1557 10.0161L17.0569 4.99449C17.2227 4.70744 17.1118 4.33999 16.8148 4.19261L14.3324 2.96062C14.0563 2.82357 13.7212 2.92894 13.5732 3.19937L10.8181 8.23314M14.1557 10.0161L10.8181 8.23314" stroke="#AEB1BB" stroke-linecap="round"/>
</svg>
