<svg width="20" height="20" viewBox="0 0 20 20" fill="none" xmlns="http://www.w3.org/2000/svg">
<g id="Footer Checkbox">
<g id="Checkbox Content">
<path id="Ellipse 59" d="M17.556 10.0256C17.556 14.1847 14.1844 17.5563 10.0253 17.5563C5.86623 17.5563 2.49463 14.1847 2.49463 10.0256C2.49463 5.86648 5.86623 2.49487 10.0253 2.49487C14.1844 2.49487 17.556 5.86648 17.556 10.0256Z" stroke="#AEB1BB"/>
<path id="Ellipse 60" d="M13.5662 10.0004C13.5662 12.1349 13.1256 14.0426 12.4369 15.3982C11.7341 16.7815 10.8539 17.4543 10.0253 17.4543C9.19665 17.4543 8.31648 16.7815 7.6137 15.3982C6.92499 14.0426 6.48438 12.1349 6.48438 10.0004C6.48438 7.86583 6.92499 5.95815 7.6137 4.60252C8.31648 3.2192 9.19665 2.54639 10.0253 2.54639C10.8539 2.54639 11.7341 3.2192 12.4369 4.60252C13.1256 5.95815 13.5662 7.86583 13.5662 10.0004Z" stroke="#AEB1BB"/>
<line id="Line 41" x1="3.06885" y1="7.47974" x2="17.033" y2="7.47974" stroke="#AEB1BB"/>
<line id="Line 42" x1="3.06885" y1="12.9019" x2="17.033" y2="12.9019" stroke="#AEB1BB"/>
</g>
</g>
</svg>
