<svg width="20" height="20" viewBox="0 0 20 20" fill="none" xmlns="http://www.w3.org/2000/svg">
<g id="Footer Checkbox">
<g id="Checkbox Content">
<g id="Checkbox Option">
<path id="Rectangle 627" d="M14.5673 18.2084L9.77367 13.4147C9.77728 13.4044 9.78165 13.3929 9.78695 13.38C9.84362 13.2428 9.96881 13.0513 10.162 12.858L12.8577 10.1624C13.0509 9.96915 13.2425 9.84396 13.3796 9.78728C13.3925 9.78198 13.404 9.77761 13.4143 9.77401L18.2079 14.5677C18.2043 14.578 18.2 14.5895 18.1947 14.6024C18.138 14.7396 18.0128 14.9311 17.8196 15.1244L15.1239 17.82C14.9307 18.0132 14.7391 18.1384 14.602 18.1951C14.5891 18.2004 14.5776 18.2048 14.5673 18.2084Z" stroke="#AEB1BB"/>
<path id="Rectangle 628" d="M6.52741 10.1685L1.79002 5.43107C1.79354 5.42124 1.79775 5.41031 1.80278 5.39825C1.86009 5.26099 1.98599 5.06925 2.17962 4.87561L4.87523 2.17997C5.06887 1.98633 5.2606 1.86042 5.39786 1.80312C5.40992 1.79808 5.42086 1.79387 5.43068 1.79036L10.1681 6.52781C10.1645 6.53763 10.1603 6.54856 10.1553 6.56063C10.098 6.69789 9.97209 6.88962 9.77846 7.08326L7.08285 9.77891C6.88921 9.97255 6.69748 10.0985 6.56022 10.1558C6.54816 10.1608 6.53723 10.165 6.52741 10.1685Z" stroke="#AEB1BB"/>
<g id="Group 698">
<path id="Vector" d="M5.83222 7.48425C6.02748 7.28898 6.02748 6.9724 5.83222 6.77713C5.63695 6.58187 5.32037 6.58187 5.12511 6.77713L5.83222 7.48425ZM13.2669 14.919C13.4621 14.7238 13.4621 14.4072 13.2669 14.2119C13.0716 14.0166 12.755 14.0166 12.5598 14.2119L13.2669 14.919ZM4.48441 8.83207L5.83222 7.48425L5.12511 6.77713L3.77731 8.12496L4.48441 8.83207ZM11.9191 16.2668L13.2669 14.919L12.5598 14.2119L11.212 15.5597L11.9191 16.2668Z" fill="#AEB1BB"/>
</g>
</g>
<g id="Group 697">
<path id="Rectangle 626" d="M13.881 3.01243C14.4421 2.4513 15.3518 2.4513 15.913 3.01243L16.9129 4.01243C17.4741 4.57355 17.4741 5.48332 16.9129 6.04444L7.47501 15.4825C7.40206 15.5555 7.30991 15.6062 7.20925 15.6289L3.62719 16.4357C3.54489 16.4542 3.47135 16.3807 3.48989 16.2984L4.29666 12.7163C4.31933 12.6156 4.37009 12.5235 4.44304 12.4505L13.881 3.01243Z" stroke="#AEB1BB"/>
<path id="Line 39" d="M11.9399 4.24536L15.679 7.98449" stroke="#AEB1BB"/>
</g>
</g>
</g>
</svg>
