<svg width="20" height="20" viewBox="0 0 20 20" fill="none" xmlns="http://www.w3.org/2000/svg">
<path d="M10.4998 7.54281H8.2499C7.00736 7.54281 6 6.52583 6 5.27141C6 4.01698 7.00736 3 8.2499 3H10.4998V7.54281Z" stroke="#AEB1BB" stroke-miterlimit="10" stroke-linecap="round" stroke-linejoin="round"/>
<path d="M10.4998 12.0863H8.2499C7.00736 12.0863 6 11.0693 6 9.81486C6 8.56044 7.00736 7.54346 8.2499 7.54346H10.4998V12.0863Z" stroke="#AEB1BB" stroke-miterlimit="10" stroke-linecap="round" stroke-linejoin="round"/>
<path d="M8.2499 16.6283C7.00736 16.6283 6 15.6113 6 14.3569C6 13.1024 7.00736 12.0854 8.2499 12.0854H10.4998V14.3569C10.4998 15.6113 9.49245 16.6283 8.2499 16.6283Z" stroke="#AEB1BB" stroke-miterlimit="10" stroke-linecap="round" stroke-linejoin="round"/>
<path d="M12.7504 7.54281H10.5005V3H12.7504C13.9929 3 15.0003 4.01698 15.0003 5.27141C15.0003 6.52583 13.9929 7.54281 12.7504 7.54281Z" stroke="#AEB1BB" stroke-miterlimit="10" stroke-linecap="round" stroke-linejoin="round"/>
<path d="M12.8997 12.0854C14.0595 12.0854 14.9996 11.1363 14.9996 9.96544C14.9996 8.79461 14.0595 7.84546 12.8997 7.84546C11.74 7.84546 10.7998 8.79461 10.7998 9.96544C10.7998 11.1363 11.74 12.0854 12.8997 12.0854Z" stroke="#AEB1BB" stroke-miterlimit="10" stroke-linecap="round" stroke-linejoin="round"/>
</svg>
