<svg width="40" height="40" viewBox="0 0 40 40" fill="none" xmlns="http://www.w3.org/2000/svg">
<path d="M25.9373 15.3878C26.1419 14.9678 26.6742 14.9678 26.8788 15.3878L29.1764 20.1038C29.5361 20.8421 30.2241 21.3751 31.0434 21.51L36.0495 22.334C36.2486 22.3668 36.4088 22.5069 36.4793 22.7335C36.5503 22.9614 36.5036 23.2012 36.3368 23.3751L32.7507 27.1138C32.1819 27.7068 31.9289 28.5362 32.052 29.3441L32.8484 34.5694C32.8892 34.8371 32.7796 35.0496 32.6182 35.1721C32.4606 35.2917 32.2746 35.3152 32.0909 35.2173L27.577 32.8119C26.8442 32.4214 25.9719 32.4214 25.2392 32.8119L20.7252 35.2173C20.5415 35.3152 20.3556 35.2917 20.1979 35.1721C20.0365 35.0496 19.927 34.8371 19.9678 34.5694L20.7641 29.3441C20.8873 28.5362 20.6342 27.7068 20.0655 27.1138L16.4793 23.3751C16.3125 23.2012 16.2659 22.9615 16.3368 22.7335C16.4073 22.5069 16.5676 22.3668 16.7666 22.334L21.7727 21.51C22.5921 21.3751 23.2801 20.8421 23.6397 20.1038L25.9373 15.3878Z" stroke="white" stroke-width="2"/>
<path d="M16.0958 7.04338L16.8453 5.50499L17.5947 7.04338C17.8314 7.52923 18.288 7.88678 18.8394 7.97755L20.5573 8.26031L19.299 9.57219C18.9221 9.96509 18.7575 10.5105 18.838 11.0387L19.109 12.8171L17.6296 12.0287C17.1384 11.767 16.5521 11.767 16.0609 12.0287L14.5815 12.8171L14.8525 11.0387C14.933 10.5105 14.7684 9.96509 14.3915 9.5722L13.1332 8.26031L14.8511 7.97755C15.4025 7.88678 15.8591 7.52923 16.0958 7.04338Z" stroke="white" stroke-width="2"/>
<path d="M7.98692 21.5743L8.9755 21.4236L7.98692 21.5743L8.14085 22.5843L7.32513 22.1497C6.87434 21.9094 6.33599 21.9094 5.88521 22.1497L5.06948 22.5843L5.22342 21.5743C5.29679 21.0929 5.14695 20.595 4.8022 20.2356L4.09289 20.9159L4.8022 20.2356L4.07114 19.4734L5.05295 19.3118C5.55955 19.2284 5.97739 18.9002 6.19352 18.4566L5.29453 18.0186L6.19352 18.4566L6.60517 17.6117L7.01682 18.4566L7.8626 18.0446L7.01682 18.4566C7.23294 18.9002 7.65079 19.2284 8.15738 19.3118L9.13919 19.4734L8.40813 20.2356C8.06338 20.595 7.91355 21.0929 7.98692 21.5743Z" stroke="white" stroke-width="2"/>
</svg>
