<svg width="42" height="42" viewBox="0 0 42 42" fill="none" xmlns="http://www.w3.org/2000/svg">
<path d="M11.2666 5.97199C13.5946 6.59674 16.0518 5.57893 17.2561 3.49105C18.9193 0.607731 23.0807 0.607731 24.7439 3.49105C25.9482 5.57893 28.4054 6.59674 30.7334 5.97199C33.9483 5.10923 36.8908 8.05174 36.028 11.2666C35.4033 13.5946 36.4211 16.0518 38.5089 17.2561C41.3923 18.9193 41.3923 23.0807 38.5089 24.7439C36.4211 25.9482 35.4033 28.4054 36.028 30.7334C36.8908 33.9483 33.9483 36.8908 30.7334 36.028C28.4054 35.4033 25.9482 36.4211 24.7439 38.5089C23.0807 41.3923 18.9193 41.3923 17.2561 38.5089C16.0518 36.4211 13.5946 35.4033 11.2666 36.028C8.05174 36.8908 5.10923 33.9483 5.97199 30.7334C6.59674 28.4054 5.57893 25.9482 3.49105 24.7439C0.607731 23.0807 0.607731 18.9193 3.49105 17.2561C5.57893 16.0518 6.59674 13.5946 5.97199 11.2666C5.10923 8.05174 8.05174 5.10923 11.2666 5.97199Z" stroke="white"/>
</svg>
