<svg width="10" height="13" viewBox="0 0 10 13" fill="none" xmlns="http://www.w3.org/2000/svg">
<path d="M4.99995 4.48121H2.99997C1.89546 4.48121 1 3.59071 1 2.49231C1 1.39391 1.89546 0.503418 2.99997 0.503418H4.99995V4.48121Z" stroke="#009DFF" stroke-width="0.5" stroke-miterlimit="10" stroke-linecap="round" stroke-linejoin="round"/>
<path d="M4.99995 8.45948H2.99997C1.89546 8.45948 1 7.56898 1 6.47058C1 5.37218 1.89546 4.48169 2.99997 4.48169H4.99995V8.45948Z" stroke="#009DFF" stroke-width="0.5" stroke-miterlimit="10" stroke-linecap="round" stroke-linejoin="round"/>
<path d="M2.99997 12.4368C1.89546 12.4368 1 11.5463 1 10.4479C1 9.34948 1.89546 8.45898 2.99997 8.45898H4.99995V10.4479C4.99995 11.5463 4.10449 12.4368 2.99997 12.4368Z" stroke="#009DFF" stroke-width="0.5" stroke-miterlimit="10" stroke-linecap="round" stroke-linejoin="round"/>
<path d="M7.00046 4.48145H5.00049V0.503662H7.00046C8.10498 0.503662 9.00044 1.39416 9.00044 2.49256C9.00044 3.59096 8.10498 4.48145 7.00046 4.48145Z" stroke="#009DFF" stroke-width="0.5" stroke-miterlimit="10" stroke-linecap="round" stroke-linejoin="round"/>
<path d="M7.13324 8.45894C8.16416 8.45894 8.99989 7.62785 8.99989 6.60264C8.99989 5.57743 8.16416 4.74634 7.13324 4.74634C6.10233 4.74634 5.2666 5.57743 5.2666 6.60264C5.2666 7.62785 6.10233 8.45894 7.13324 8.45894Z" stroke="#009DFF" stroke-width="0.5" stroke-miterlimit="10" stroke-linecap="round" stroke-linejoin="round"/>
</svg>
