<svg width="42" height="42" viewBox="0 0 42 42" fill="none" xmlns="http://www.w3.org/2000/svg">
<path d="M16.823 3.24122C18.6786 0.024342 23.3214 0.0243417 25.177 3.24122V3.24122C26.2682 5.13294 28.4945 6.05513 30.6038 5.48908V5.48908C34.1906 4.52651 37.4735 7.80943 36.5109 11.3962V11.3962C35.9449 13.5055 36.8671 15.7318 38.7588 16.823V16.823C41.9757 18.6786 41.9757 23.3214 38.7588 25.177V25.177C36.8671 26.2682 35.9449 28.4945 36.5109 30.6038V30.6038C37.4735 34.1906 34.1906 37.4735 30.6038 36.5109V36.5109C28.4945 35.9449 26.2682 36.8671 25.177 38.7588V38.7588C23.3214 41.9757 18.6786 41.9757 16.823 38.7588V38.7588C15.7318 36.8671 13.5055 35.9449 11.3962 36.5109V36.5109C7.80943 37.4735 4.52651 34.1906 5.48908 30.6038V30.6038C6.05513 28.4945 5.13294 26.2682 3.24122 25.177V25.177C0.024342 23.3214 0.0243417 18.6786 3.24122 16.823V16.823C5.13294 15.7318 6.05513 13.5055 5.48908 11.3962V11.3962C4.52651 7.80943 7.80943 4.52651 11.3962 5.48908V5.48908C13.5055 6.05513 15.7318 5.13294 16.823 3.24122V3.24122Z" fill="white"/>
</svg>
