<svg width="14" height="14" viewBox="0 0 14 14" fill="none" xmlns="http://www.w3.org/2000/svg">
<path d="M6.71999 6.78666C6.89651 6.69839 7.1043 6.69839 7.28082 6.78666L12.3197 9.30611C12.7819 9.53718 12.7819 10.1967 12.3197 10.4278L7.28082 12.9472C7.1043 13.0355 6.89651 13.0355 6.71999 12.9472L1.68109 10.4278C1.21893 10.1967 1.21893 9.53718 1.68109 9.30611L6.71999 6.78666Z" stroke="#9B69FF" stroke-width="0.5"/>
<path d="M6.71999 3.92777C6.89651 3.83951 7.1043 3.83951 7.28082 3.92777L12.3197 6.44722C12.7819 6.6783 12.7819 7.33781 12.3197 7.56889L7.28082 10.0883C7.1043 10.1766 6.89651 10.1766 6.71999 10.0883L1.68109 7.56889C1.21893 7.33781 1.21893 6.6783 1.68109 6.44722L6.71999 3.92777Z" stroke="#9B69FF" stroke-width="0.5"/>
<path d="M6.60818 0.748596C6.85509 0.625142 7.14572 0.625142 7.39262 0.748596L12.4315 3.26805C13.0779 3.59125 13.0779 4.51372 12.4315 4.83693L7.39262 7.35638C7.14572 7.47983 6.85509 7.47983 6.60818 7.35638L1.56928 4.83693C0.922869 4.51372 0.92287 3.59125 1.56928 3.26805L6.60818 0.748596Z" fill="#9B69FF"/>
</svg>
