<svg width="40" height="40" viewBox="0 0 40 40" fill="none" xmlns="http://www.w3.org/2000/svg">
<path d="M26.2149 10.991C26.2149 9.81984 27.1746 8.85618 28.376 8.85618H31.3264C34.4678 8.85618 37 11.3793 37 14.4742V25.1326C37 28.2274 34.4678 30.7506 31.3264 30.7506H28.376C27.1746 30.7506 26.2149 29.7869 26.2149 28.6157V10.991ZM7.16116 18.0022C5.95968 18.0022 5 17.0386 5 15.8674L5 11.618C5 8.52312 7.53224 6 10.6736 6L19.2438 6C20.4453 6 21.405 6.96366 21.405 8.13483V15.8674C21.405 17.0386 20.4453 18.0022 19.2438 18.0022H7.16116ZM19.2438 22.9978C20.4453 22.9978 21.405 23.9614 21.405 25.1326V32.8652C21.405 34.0363 20.4453 35 19.2438 35H13.5537C10.4124 35 7.88017 32.4769 7.88017 29.382V25.1326C7.88017 23.9614 8.83985 22.9978 10.0413 22.9978H19.2438Z" stroke="white" stroke-width="2"/>
</svg>
