<svg width="161" height="142" viewBox="0 0 161 142" fill="none" xmlns="http://www.w3.org/2000/svg">
<g filter="url(#filter0_d_385_3)">
<path fill-rule="evenodd" clip-rule="evenodd" d="M28.4854 71.2697C25.6156 72.9265 24.6324 76.5961 26.2892 79.4658L45.9997 113.605C47.6565 116.475 51.3261 117.458 54.1958 115.801L133.004 70.3015C135.874 68.6446 136.857 64.9751 135.2 62.1053L115.49 27.9658C113.833 25.0961 110.163 24.1128 107.294 25.7697L28.4854 71.2697ZM81 84C88.1797 84 94 78.1797 94 71C94 63.8203 88.1797 58 81 58C73.8203 58 68 63.8203 68 71C68 78.1797 73.8203 84 81 84ZM113 54.5C113 57.5376 110.538 60 107.5 60C104.462 60 102 57.5376 102 54.5C102 51.4624 104.462 49 107.5 49C110.538 49 113 51.4624 113 54.5ZM55.5 92C58.5376 92 61 89.5376 61 86.5C61 83.4624 58.5376 81 55.5 81C52.4624 81 50 83.4624 50 86.5C50 89.5376 52.4624 92 55.5 92Z" fill="white"/>
</g>
<path d="M126.148 68.7603L56.1899 108.466C55.0804 109.096 53.7558 109.225 52.5456 108.821L50.4912 108.137C49.4296 107.783 48.538 107.046 47.9903 106.07L34.0507 81.2398C33.4134 80.1046 33.299 78.749 33.7369 77.5231L34.8599 74.3796C35.2157 73.3837 35.9108 72.5449 36.8234 72.0104L103.947 32.6973C104.714 32.2478 105.597 32.0358 106.485 32.0881L110.696 32.3358C112.25 32.4271 113.646 33.3147 114.388 34.6828L128.258 60.2584C128.727 61.1226 128.899 62.1164 128.75 63.0879L128.374 65.5309C128.165 66.8912 127.344 68.0809 126.148 68.7603Z" stroke="black"/>
<defs>
<filter id="filter0_d_385_3" x="0.784374" y="0.264843" width="159.921" height="141.042" filterUnits="userSpaceOnUse" color-interpolation-filters="sRGB">
<feFlood flood-opacity="0" result="BackgroundImageFix"/>
<feColorMatrix in="SourceAlpha" type="matrix" values="0 0 0 0 0 0 0 0 0 0 0 0 0 0 0 0 0 0 127 0" result="hardAlpha"/>
<feOffset/>
<feGaussianBlur stdDeviation="12.35"/>
<feComposite in2="hardAlpha" operator="out"/>
<feColorMatrix type="matrix" values="0 0 0 0 1 0 0 0 0 1 0 0 0 0 1 0 0 0 0.25 0"/>
<feBlend mode="normal" in2="BackgroundImageFix" result="effect1_dropShadow_385_3"/>
<feBlend mode="normal" in="SourceGraphic" in2="effect1_dropShadow_385_3" result="shape"/>
</filter>
</defs>
</svg>
