<svg width="206" height="206" viewBox="0 0 206 206" fill="none" xmlns="http://www.w3.org/2000/svg">
<g filter="url(#filter0_d_385_4)">
<path fill-rule="evenodd" clip-rule="evenodd" d="M94.3961 53.8512C99.1082 49.004 106.892 49.004 111.604 53.8512L116.243 58.6224C118.543 60.9886 121.717 62.3031 125.016 62.2565L131.67 62.1626C138.429 62.0671 143.934 67.5713 143.838 74.3308L143.744 80.9843C143.698 84.2842 145.012 87.4576 147.378 89.758L152.15 94.3963C156.997 99.1085 156.997 106.893 152.15 111.605L147.378 116.243C145.012 118.543 143.698 121.717 143.744 125.017L143.838 131.67C143.934 138.43 138.429 143.934 131.67 143.838L125.016 143.745C121.717 143.698 118.543 145.012 116.243 147.379L111.605 152.15C106.892 156.997 99.1082 156.997 94.3961 152.15L89.7577 147.379C87.4573 145.012 84.2839 143.698 80.9841 143.745L74.3305 143.838C67.5711 143.934 62.0669 138.43 62.1623 131.67L62.2563 125.017C62.3029 121.717 60.9884 118.543 58.6221 116.243L53.8509 111.605C49.0038 106.893 49.0038 99.1085 53.8509 94.3963L58.6221 89.758C60.9884 87.4576 62.3029 84.2842 62.2563 80.9843L62.1623 74.3308C62.0669 67.5713 67.5711 62.0671 74.3305 62.1626L80.9841 62.2565C84.2839 62.3031 87.4573 60.9886 89.7577 58.6224L94.3961 53.8512ZM77.0003 108.796L83.524 102.596L95.151 114.83L124.981 85.0005L131.345 91.3645L101.353 121.356L101.435 121.443L98.0328 124.676L95.3647 127.344L95.2969 127.277L94.9117 127.643L77.0003 108.796Z" fill="white"/>
</g>
<defs>
<filter id="filter0_d_385_4" x="0.215576" y="0.21582" width="205.569" height="205.569" filterUnits="userSpaceOnUse" color-interpolation-filters="sRGB">
<feFlood flood-opacity="0" result="BackgroundImageFix"/>
<feColorMatrix in="SourceAlpha" type="matrix" values="0 0 0 0 0 0 0 0 0 0 0 0 0 0 0 0 0 0 127 0" result="hardAlpha"/>
<feOffset/>
<feGaussianBlur stdDeviation="25"/>
<feComposite in2="hardAlpha" operator="out"/>
<feColorMatrix type="matrix" values="0 0 0 0 1 0 0 0 0 1 0 0 0 0 1 0 0 0 0.5 0"/>
<feBlend mode="normal" in2="BackgroundImageFix" result="effect1_dropShadow_385_4"/>
<feBlend mode="normal" in="SourceGraphic" in2="effect1_dropShadow_385_4" result="shape"/>
</filter>
</defs>
</svg>
