<svg width="181" height="181" viewBox="0 0 181 181" fill="none" xmlns="http://www.w3.org/2000/svg">
<g filter="url(#filter0_d_3_1183)">
<path d="M90.4991 50C68.882 50 51.1823 66.9673 50.0087 88.2535C49.9135 89.709 50.6035 91.1012 51.8247 91.908C53.0459 92.7069 54.6081 92.7939 55.9086 92.1295C57.2091 91.465 58.0576 90.152 58.1131 88.6965C59.0568 71.6185 73.1246 58.1 90.4991 58.1C99.8089 58.1 108.159 61.9997 114.067 68.225H108.77C107.303 68.2013 105.947 68.9686 105.209 70.2342C104.464 71.4919 104.464 73.0581 105.209 74.3158C105.947 75.5814 107.303 76.3487 108.77 76.325H121.481C121.941 76.4041 122.409 76.4041 122.877 76.325H129.07V56.075C129.086 54.9834 128.658 53.9313 127.881 53.1562C127.104 52.381 126.049 51.9538 124.947 51.9696C122.711 52.0013 120.918 53.8364 120.95 56.075V63.7241C113.504 55.3077 102.608 50 90.4991 50ZM127.104 88.4196C124.86 88.3247 122.972 90.0649 122.885 92.3035C121.941 109.382 107.874 122.9 90.4991 122.9C81.1893 122.9 72.847 119 66.9312 112.775H72.2285C73.6955 112.799 75.0515 112.031 75.789 110.766C76.5344 109.508 76.5344 107.942 75.789 106.684C75.0515 105.419 73.6955 104.651 72.2285 104.675H59.4771C59.0489 104.612 58.6206 104.612 58.1924 104.675H51.9278V124.925C51.904 126.388 52.6732 127.741 53.942 128.477C55.2028 129.22 56.773 129.22 58.0338 128.477C59.3026 127.741 60.0718 126.388 60.048 124.925V117.276C67.4943 125.692 78.39 131 90.4991 131C112.116 131 129.816 114.033 130.989 92.7465C131.069 91.6549 130.696 90.5791 129.967 89.7644C129.229 88.9496 128.198 88.4671 127.104 88.4196Z" fill="white"/>
</g>
<defs>
<filter id="filter0_d_3_1183" x="0" y="0" width="181" height="181" filterUnits="userSpaceOnUse" color-interpolation-filters="sRGB">
<feFlood flood-opacity="0" result="BackgroundImageFix"/>
<feColorMatrix in="SourceAlpha" type="matrix" values="0 0 0 0 0 0 0 0 0 0 0 0 0 0 0 0 0 0 127 0" result="hardAlpha"/>
<feOffset/>
<feGaussianBlur stdDeviation="25"/>
<feComposite in2="hardAlpha" operator="out"/>
<feColorMatrix type="matrix" values="0 0 0 0 1 0 0 0 0 1 0 0 0 0 1 0 0 0 0.5 0"/>
<feBlend mode="normal" in2="BackgroundImageFix" result="effect1_dropShadow_3_1183"/>
<feBlend mode="normal" in="SourceGraphic" in2="effect1_dropShadow_3_1183" result="shape"/>
</filter>
</defs>
</svg>
