<svg width="189" height="172" viewBox="0 0 189 172" fill="none" xmlns="http://www.w3.org/2000/svg">
<g filter="url(#filter0_d_3_965)">
<path d="M103.539 109.005C114.099 109.005 122.66 100.356 122.66 89.6878C122.66 79.0193 114.099 70.3707 103.539 70.3707C92.9787 70.3707 84.418 79.0193 84.418 89.6878C84.418 100.356 92.9787 109.005 103.539 109.005Z" fill="white"/>
<path fill-rule="evenodd" clip-rule="evenodd" d="M126.137 59.1317H122.221C121.541 53.9768 117.172 50 111.883 50H94.8477C89.559 50 85.1898 53.9768 84.5099 59.1317H74.6836V57.0244C74.6836 56.2486 74.061 55.6195 73.293 55.6195H60.4297C59.6617 55.6195 59.0391 56.2486 59.0391 57.0244V59.7156C53.8023 61.3606 50 66.2952 50 72.1268V109.005C50 116.182 55.7591 122 62.8633 122H126.137C133.241 122 139 116.182 139 109.005V72.1268C139 64.9498 133.241 59.1317 126.137 59.1317ZM103.539 113.22C116.403 113.22 126.832 102.684 126.832 89.6878C126.832 76.6917 116.403 66.1561 103.539 66.1561C90.6747 66.1561 80.2461 76.6917 80.2461 89.6878C80.2461 102.684 90.6747 113.22 103.539 113.22ZM62.3418 75.2878C64.3579 75.2878 65.9922 73.6367 65.9922 71.6C65.9922 69.5633 64.3579 67.9122 62.3418 67.9122C60.3258 67.9122 58.6914 69.5633 58.6914 71.6C58.6914 73.6367 60.3258 75.2878 62.3418 75.2878Z" fill="white"/>
</g>
<defs>
<filter id="filter0_d_3_965" x="0" y="0" width="189" height="172" filterUnits="userSpaceOnUse" color-interpolation-filters="sRGB">
<feFlood flood-opacity="0" result="BackgroundImageFix"/>
<feColorMatrix in="SourceAlpha" type="matrix" values="0 0 0 0 0 0 0 0 0 0 0 0 0 0 0 0 0 0 127 0" result="hardAlpha"/>
<feOffset/>
<feGaussianBlur stdDeviation="25"/>
<feComposite in2="hardAlpha" operator="out"/>
<feColorMatrix type="matrix" values="0 0 0 0 1 0 0 0 0 1 0 0 0 0 1 0 0 0 0.5 0"/>
<feBlend mode="normal" in2="BackgroundImageFix" result="effect1_dropShadow_3_965"/>
<feBlend mode="normal" in="SourceGraphic" in2="effect1_dropShadow_3_965" result="shape"/>
</filter>
</defs>
</svg>
