<svg width="50" height="50" viewBox="0 0 50 50" fill="none" xmlns="http://www.w3.org/2000/svg">
<g id="Play Button Container">
<g id="Subtract">
<mask id="path-1-inside-1_423_5030" fill="white">
<path fill-rule="evenodd" clip-rule="evenodd" d="M25 50C38.8071 50 50 38.8071 50 25C50 11.1929 38.8071 0 25 0C11.1929 0 0 11.1929 0 25C0 38.8071 11.1929 50 25 50ZM21.068 35.0623L34.3226 26.691C35.5653 25.9061 35.5653 24.0939 34.3226 23.309L21.068 14.9377C19.7362 14.0966 18 15.0535 18 16.6287V33.3713C18 34.9465 19.7362 35.9034 21.068 35.0623Z"/>
</mask>
<path fill-rule="evenodd" clip-rule="evenodd" d="M25 50C38.8071 50 50 38.8071 50 25C50 11.1929 38.8071 0 25 0C11.1929 0 0 11.1929 0 25C0 38.8071 11.1929 50 25 50ZM21.068 35.0623L34.3226 26.691C35.5653 25.9061 35.5653 24.0939 34.3226 23.309L21.068 14.9377C19.7362 14.0966 18 15.0535 18 16.6287V33.3713C18 34.9465 19.7362 35.9034 21.068 35.0623Z" fill="white"/>
<path d="M34.3226 26.691L34.8566 27.5365L34.8566 27.5365L34.3226 26.691ZM21.068 35.0623L20.534 34.2168L20.534 34.2168L21.068 35.0623ZM34.3226 23.309L34.8566 22.4635L34.8566 22.4635L34.3226 23.309ZM21.068 14.9377L20.534 15.7832L20.534 15.7832L21.068 14.9377ZM49 25C49 38.2548 38.2548 49 25 49V51C39.3594 51 51 39.3594 51 25H49ZM25 1C38.2548 1 49 11.7452 49 25H51C51 10.6406 39.3594 -1 25 -1V1ZM1 25C1 11.7452 11.7452 1 25 1V-1C10.6406 -1 -1 10.6406 -1 25H1ZM25 49C11.7452 49 1 38.2548 1 25H-1C-1 39.3594 10.6406 51 25 51V49ZM33.7886 25.8455L20.534 34.2168L21.602 35.9078L34.8566 27.5365L33.7886 25.8455ZM33.7886 24.1545C34.41 24.5469 34.41 25.4531 33.7886 25.8455L34.8566 27.5365C36.7206 26.3592 36.7206 23.6408 34.8566 22.4635L33.7886 24.1545ZM20.534 15.7832L33.7886 24.1545L34.8566 22.4635L21.602 14.0922L20.534 15.7832ZM19 16.6287C19 15.8411 19.8681 15.3626 20.534 15.7832L21.602 14.0922C19.6044 12.8305 17 14.266 17 16.6287H19ZM19 33.3713V16.6287H17V33.3713H19ZM20.534 34.2168C19.8681 34.6374 19 34.1589 19 33.3713H17C17 35.734 19.6044 37.1695 21.602 35.9078L20.534 34.2168Z" fill="white" mask="url(#path-1-inside-1_423_5030)"/>
</g>
</g>
</svg>
