<svg width="110" height="54" viewBox="0 0 110 54" fill="none" xmlns="http://www.w3.org/2000/svg">
<path d="M1 35.3991C1 35.3991 4.76723 33.9641 7.25235 33.279C9.68957 32.6072 11.0779 32.273 13.58 31.9161C18.5988 31.2002 21.5071 31.5119 26.5603 31.9161C32.7137 32.4083 35.6725 32.662 41.452 33.5819C48.017 34.6268 51.6366 35.5814 58.0998 37.1406C70.6681 40.1725 77.7211 43.3997 90.2655 46.5296C97.3589 48.2994 101.108 49.2047 108.119 50.6183V50.6183C109.328 50.862 109.761 49.1696 108.597 48.7626C108.525 48.7374 108.453 48.7124 108.382 48.6875C106.01 47.8564 104.635 47.5067 102.318 46.5296C100.395 45.7183 99.1605 45.4849 97.4972 44.2202C96.4271 43.4065 95.6666 42.9945 95.049 41.7972V41.7972C94.8413 41.3946 93.6489 41.2731 93.5432 41.7137C93.3689 42.4402 93.1893 43.1791 93.0151 43.8795C92.7261 45.0412 92.4842 45.6812 91.9605 46.7567C91.6942 47.3036 91.5432 47.613 91.2072 48.1196C90.9058 48.5739 90.3032 48.9904 89.8512 48.8768C89.2405 48.7233 89.0226 48.2711 89.0226 47.5139C89.0226 46.5972 89.0601 45.2294 89.0979 43.7659V43.7659C89.1245 42.7389 87.6273 42.3901 87.1235 43.2854C86.8908 43.6989 86.6544 44.0953 86.4237 44.4473C85.3392 46.1027 84.2015 48.5739 83.3729 48.4604C82.5386 48.346 82.4689 47.0596 82.1676 45.9617C81.9262 45.0821 81.6734 44.2497 81.565 43.5766C81.2714 41.7542 80.8493 40.1314 80.209 39.8664C79.4195 39.5396 79.0791 40.4343 78.5895 41.3429C78.1112 42.2304 77.5646 43.3168 77.0401 44.3891C76.558 45.3744 75.0093 45.0003 75.0447 43.9039C75.1335 41.15 75.2237 37.7801 75.2373 35.1341C75.2437 33.8774 75.2373 33.1276 75.2373 31.9161C75.2373 30.9881 75.0866 30.061 74.2203 29.9853C73.3541 29.9096 71.7901 32.1235 70.8305 33.3926C69.3993 35.2855 68.307 37.2163 66.6497 39.6688C66.0279 40.589 65.8588 40.8129 65.3315 41.4186C64.7856 42.0457 63.8597 42.9414 63.0716 42.7058C61.7332 42.3059 62.1665 38.6935 62.2029 38.4079C62.2046 38.3945 62.2049 38.3921 62.2072 38.3789C62.281 37.9622 64.4219 25.8998 66.2354 19.6499C68.081 13.2896 69.1406 9.65518 70.9812 4.80927C71.251 4.09876 71.6142 3.23525 72.0376 2.27887C72.5444 1.13399 71.4749 0.54096 70.9167 1.66168C70.4748 2.5488 70.0528 3.43859 69.6629 4.3171C66.2354 12.0403 63.7872 18.3269 60.7364 26.3887C58.9384 31.1397 58.4106 32.9935 56.7062 37.1406C55.6524 39.7047 55.1036 41.4949 53.693 43.8795C52.5008 45.8949 51.8417 46.8543 50.3032 48.4604C48.963 49.8594 48.2103 50.7385 46.4991 51.6405C44.8457 52.5119 43.7669 52.843 41.904 52.9655C39.8795 53.0988 38.6648 52.8534 36.7815 52.0948C34.9222 51.3458 34.0491 50.5246 32.5254 49.2175C31.1643 48.0499 30.3961 47.3536 29.3616 45.886C28.3576 44.4616 27.8807 43.5656 27.3277 41.9108C26.7668 40.2325 26.7127 39.2072 26.5603 37.4435C26.4037 35.6318 26.311 34.4366 26.5603 32.6354C26.7699 31.1211 27.0241 30.3507 27.5537 28.9631C28.1097 27.5062 28.5213 26.7165 29.3616 25.4044C30.2618 23.9987 30.814 23.2071 32.0358 22.0728C33.4414 20.7679 34.4243 20.2338 36.1412 19.3849C37.4281 18.7486 38.1677 18.3675 39.5687 18.0598C40.7943 17.7907 41.5161 17.8255 42.7703 17.7948C44.5525 17.7511 45.5662 17.7839 47.3277 18.0598C49.0831 18.3347 51.7345 19.1956 51.7345 19.1956" stroke="white" stroke-linecap="round"/>
</svg>
