<svg width="1440" height="1024" viewBox="0 0 1440 1024" fill="none" xmlns="http://www.w3.org/2000/svg">
<rect width="1440" height="1024" fill="#2E3C26"/>
<path d="M719.321 511.182C719.321 530.128 715.9 546.501 709.059 560.301C702.217 574.101 692.832 584.744 680.903 592.229C668.974 599.714 655.349 603.456 640.028 603.456C624.708 603.456 611.083 599.714 599.154 592.229C587.225 584.744 577.84 574.101 570.998 560.301C564.157 546.501 560.736 530.128 560.736 511.182C560.736 492.236 564.157 475.863 570.998 462.062C577.84 448.262 587.225 437.62 599.154 430.135C611.083 422.65 624.708 418.908 640.028 418.908C655.349 418.908 668.974 422.65 680.903 430.135C692.832 437.62 702.217 448.262 709.059 462.062C715.9 475.863 719.321 492.236 719.321 511.182ZM698.27 511.182C698.27 495.627 695.668 482.5 690.463 471.799C685.318 461.098 678.33 452.999 669.5 447.502C660.729 442.005 650.905 439.257 640.028 439.257C629.152 439.257 619.299 442.005 610.469 447.502C601.698 452.999 594.71 461.098 589.506 471.799C584.36 482.5 581.787 495.627 581.787 511.182C581.787 526.736 584.36 539.864 589.506 550.565C594.71 561.266 601.698 569.365 610.469 574.862C619.299 580.358 629.152 583.107 640.028 583.107C650.905 583.107 660.729 580.358 669.5 574.862C678.33 569.365 685.318 561.266 690.463 550.565C695.668 539.864 698.27 526.736 698.27 511.182ZM753.427 601V421.364H775.18V510.48H777.285L857.981 421.364H886.4L810.967 502.411L886.4 601H860.086L797.635 517.497L775.18 542.759V601H753.427Z" fill="white"/>
</svg>
