<svg width="20" height="20" viewBox="0 0 20 20" fill="none" xmlns="http://www.w3.org/2000/svg">
<path d="M17.5555 10.0268C17.5555 14.1859 14.1839 17.5575 10.0248 17.5575C5.86575 17.5575 2.49414 14.1859 2.49414 10.0268C2.49414 5.8677 5.86575 2.49609 10.0248 2.49609C14.1839 2.49609 17.5555 5.8677 17.5555 10.0268Z" stroke="#AEB1BB"/>
<path d="M13.5662 10.0008C13.5662 12.1354 13.1256 14.043 12.4369 15.3987C11.7341 16.782 10.8539 17.4548 10.0253 17.4548C9.19665 17.4548 8.31648 16.782 7.6137 15.3987C6.92499 14.043 6.48438 12.1354 6.48438 10.0008C6.48438 7.86632 6.92499 5.95864 7.6137 4.60301C8.31648 3.21969 9.19665 2.54688 10.0253 2.54688C10.8539 2.54688 11.7341 3.21969 12.4369 4.60301C13.1256 5.95864 13.5662 7.86632 13.5662 10.0008Z" stroke="#AEB1BB"/>
<line x1="3.06836" y1="7.48047" x2="17.0326" y2="7.48047" stroke="#AEB1BB"/>
<line x1="3.06836" y1="12.9023" x2="17.0326" y2="12.9023" stroke="#AEB1BB"/>
</svg>
