<svg width="24" height="24" viewBox="0 0 24 24" fill="none" xmlns="http://www.w3.org/2000/svg">
<path d="M8.08705 3.06977C9.59743 2.40741 11.2513 2.13955 12.8935 2.29132C14.5358 2.44309 16.1125 3.00951 17.4759 3.93746C16.3486 5.46625 14.9292 6.75627 13.3 7.73287C11.9308 5.81013 10.1499 4.21707 8.08705 3.06977ZM11.9604 8.44066C10.5473 6.51197 8.67444 4.96716 6.51216 3.94675C4.62338 5.2353 3.24543 7.14456 2.61751 9.34309C3.72467 9.61362 4.86033 9.75018 6.00006 9.74982C8.05837 9.75179 10.0924 9.30503 11.9604 8.44066ZM21.7311 11.4086C21.58 8.91574 20.476 6.57648 18.6477 4.87523C17.4173 6.53001 15.8762 7.92922 14.1107 8.99469C14.6248 9.88512 15.05 10.8239 15.3803 11.7976C17.4488 11.2376 19.6097 11.1052 21.7311 11.4086ZM15.7939 13.2396C16.0717 14.4217 16.2116 15.6319 16.211 16.8462C16.2101 18.2647 16.0182 19.6767 15.6407 21.0441C17.2977 20.3741 18.7391 19.2624 19.8083 17.8301C20.8775 16.3978 21.5334 14.6997 21.7046 12.9205C19.7337 12.6131 17.7203 12.7218 15.7939 13.2396ZM13.9526 12.2595C13.6505 11.3731 13.2613 10.5188 12.7909 9.70899C10.6717 10.7259 8.35065 11.2526 6.00006 11.2498C4.76109 11.2502 3.5264 11.1043 2.32166 10.815C2.12549 12.4178 2.33087 14.0441 2.91932 15.5478C3.50777 17.0514 4.46082 18.3852 5.69272 19.4291C7.50745 16.1343 10.4354 13.5929 13.9526 12.2595ZM6.91728 20.3175C9.00853 21.5971 11.5053 22.0414 13.9096 21.5616C14.4393 20.0459 14.7103 18.4518 14.711 16.8462C14.7111 15.7907 14.5937 14.7385 14.3611 13.709C11.17 14.9519 8.52944 17.2962 6.91728 20.3175Z" fill="#AFAFB6"/>
</svg>
