<svg width="20" height="20" viewBox="0 0 20 20" fill="none" xmlns="http://www.w3.org/2000/svg">
<path d="M15.006 14.5H15.0043H15.0023H15H14.9977H14.9951H14.9924H14.9896H14.9865H14.9834H14.98H14.9765H14.9729H14.9691H14.9651H14.961H14.9568H14.9523H14.9478H14.943H14.9382H14.9331H14.928H14.9226H14.9172H14.9115H14.9058H14.8999H14.8938H14.8876H14.8812H14.8747H14.8681H14.8613H14.8543H14.8473H14.84H14.8327H14.8252H14.8175H14.8097H14.8018H14.7938H14.7856H14.7772H14.7687H14.7601H14.7514H14.7425H14.7335H14.7243H14.715H14.7056H14.696H14.6863H14.6765H14.6666H14.6565H14.6463H14.6359H14.6255H14.6149H14.6041H14.5933H14.5823H14.5712H14.56H14.5486H14.5371H14.5255H14.5138H14.5019H14.49H14.4779H14.4657H14.4533H14.4409H14.4283H14.4156H14.4028H14.3898H14.3768H14.3636H14.3503H14.337H14.3234H14.3098H14.2961H14.2822H14.2683H14.2542H14.24H14.2257H14.2113H14.1968H14.1821H14.1674H14.1526H14.1376H14.1226H14.1074H14.0921H14.0767H14.0613H14.0457H14.03H14.0142H13.9983H13.9823H13.9662H13.95H13.9337H13.9173H13.9008H13.8842H13.8675H13.8507H13.8338H13.8169H13.7998H13.7826H13.7653H13.748H13.7305H13.713H13.6953H13.6776H13.6598H13.6419H13.6239H13.6058H13.5876H13.5693H13.5509H13.5325H13.514H13.4954H13.4766H13.4579H13.439H13.42H13.401H13.3819H13.3627H13.3434H13.324H13.3046H13.285H13.2654H13.2457H13.226H13.2061H13.1862H13.1662H13.1461H13.126H13.1058H13.0855H13.0651H13.0447H13.0241H13.0036H12.9829H12.9622H12.9414H12.9205H12.8996H12.8786H12.8575H12.8363H12.8151H12.7939H12.7725H12.7511H12.7296H12.7081H12.6865H12.6648H12.6431H12.6213H12.5995H12.5776H12.5556H12.5336H12.5115H12.4893H12.4671H12.4449H12.4226H12.4002H12.3778H12.3553H12.3327H12.3102H12.2875H12.2648H12.2421H12.2193H12.1964H12.1735H12.1505H12.1275H12.1045H12.0814H12.0582H12.0351H12.0118H11.9885H11.9652H11.9418H11.9184H11.8949H11.8714H11.8479H11.8243H11.8006H11.777H11.7532H11.7295H11.7057H11.6819H11.658H11.6341H11.6101H11.5861H11.5621H11.5381H11.514H11.4899H11.4657H11.4415H11.4173H11.393H11.3687H11.3444H11.3201H11.2957H11.2713H11.2469H11.2224H11.1979H11.1734H11.1489H11.1243H11.0997H11.0751H11.0504H11.0258H11.0011H10.9764H10.9516H10.9269H10.9021H10.8773H10.8525H10.8277H10.8028H10.7779H10.7531H10.7282H10.7032H10.6783H10.6534H10.6284H10.6034H10.5784H10.5534H10.5284H10.5034H10.4783H10.4533H10.4282H10.4032H10.3781H10.353H10.3279H10.3028H10.2777H10.2526H10.2275H10.2023H10.1772H10.1521H10.1269H10.1018H10.0767H10.0515H10.0264H10.0012H9.9761H9.95096H9.92582H9.90069H9.87555H9.85042H9.82529H9.80017H9.77505H9.74993H9.72483H9.69972H9.67463H9.64954H9.62446H9.59939H9.57433H9.54928H9.52424H9.49921H9.47419H9.44919H9.42419H9.39921H9.37425H9.34929H9.32436H9.29943H9.27453H9.24964H9.22477H9.19991H9.17508H9.15026H9.12546H9.10068H9.07593H9.05119H9.02648H9.00178H8.97711H8.95247H8.92785H8.90325H8.87868H8.85413H8.82961H8.80511H8.78065H8.75621H8.7318H8.70742H8.68306H8.65874H8.63445H8.61019H8.58596H8.56177H8.5376H8.51347H8.48938H8.46532H8.44129H8.4173H8.39335H8.36943H8.34556H8.32171H8.29791H8.27415H8.25043H8.22674H8.2031H8.1795H8.15594H8.13242H8.10895H8.08552H8.06214H8.0388H8.0155H7.99225H7.96905H7.94589H7.92278H7.89972H7.87671H7.85375H7.83084H7.80798H7.78517H7.76241H7.7397H7.71705H7.69445H7.6719H7.64941H7.62697H7.60458H7.58226H7.55999H7.53778H7.51562H7.49353H7.47149H7.44951H7.42759H7.40573H7.38394H7.3622H7.34053H7.31892H7.29737H7.27589H7.25448H7.23312H7.21184H7.19062H7.16946H7.14838H7.12736H7.10641H7.08553H7.06471H7.04397H7.0233H7.0027H6.98218H6.96172H6.94134H6.92103H6.9008H6.88064H6.86055H6.84054H6.82061H6.80076H6.78098H6.76128H6.74166H6.72212H6.70265H6.68327H6.66397H6.64475H6.62561H6.60656H6.58759H6.5687H6.5499H6.53118H6.51254H6.494H6.47554H6.45716H6.43888H6.42068H6.40257H6.38455H6.36662H6.34878H6.33103H6.31337H6.29581H6.27834H6.26096H6.24367H6.22648H6.20939H6.19239H6.17549H6.15868H6.14197H6.12536H6.10884H6.09243H6.07611H6.0599H6.04378H6.02777H6.01186H5.99605H5.98034H5.96474H5.94924H5.93385H5.91856H5.90338H5.8883H5.87333H5.85846H5.84371H5.82906H5.81453H5.8001H5.78578H5.77157H5.75748H5.7435H5.72962H5.71587H5.70222H5.68869H5.67528H5.66198H5.64879H5.63572H5.62277H5.60994H5.59723H5.58463H5.57215H5.55979C4.7162 14.5 3.95614 14.0018 3.38339 13.2954C2.80319 12.5797 2.50428 11.7589 2.50428 11.2855C2.50428 11.2433 2.50424 11.2014 2.50421 11.1601C2.50323 9.95681 2.50255 9.12409 3.35078 8.25005C3.789 7.79851 4.37471 7.52614 4.87721 7.36728C5.12474 7.28902 5.3428 7.24122 5.49763 7.21319C5.57481 7.19922 5.63564 7.19028 5.67581 7.18496C5.69587 7.1823 5.71072 7.18055 5.71981 7.17954L5.72904 7.17855L5.72968 7.17848L5.73003 7.17845L5.73007 7.17845L5.73028 7.17842L6.04112 7.14974L6.15058 6.85839L6.15072 6.85804L6.15073 6.858L6.15112 6.85698L6.15156 6.85591L6.15868 6.8385C6.16578 6.82156 6.17759 6.7943 6.19444 6.75833C6.2282 6.6863 6.28189 6.58001 6.35808 6.45219C6.51104 6.1956 6.75111 5.85824 7.09736 5.53692C7.77652 4.90668 8.889 4.31172 10.6514 4.55623C12.4028 4.79922 13.3023 5.70888 13.7797 6.54434C14.0228 6.96989 14.1592 7.38264 14.2344 7.68914C14.2718 7.84177 14.2936 7.96619 14.3059 8.05013C14.312 8.09204 14.3157 8.12368 14.3178 8.1435L14.3198 8.16409L14.32 8.16613L14.32 8.16654L14.3201 8.16711L14.3201 8.16733L14.3512 8.61267L14.7972 8.63034L14.7975 8.63036L14.7975 8.63035L14.7981 8.63038L14.7985 8.6304L14.7998 8.63048L14.8178 8.63168C14.8352 8.63297 14.8632 8.63537 14.9001 8.63958C14.9743 8.64801 15.0836 8.6636 15.2163 8.69182C15.4837 8.74869 15.8342 8.8544 16.1797 9.04749C16.844 9.41865 17.5285 10.1273 17.5285 11.5908C17.5285 13.0693 16.879 13.7613 16.272 14.1124C15.9536 14.2966 15.6307 14.395 15.3843 14.4466C15.2621 14.4723 15.1616 14.4858 15.0938 14.4929C15.06 14.4964 15.0346 14.4983 15.0191 14.4993L15.0062 14.5H15.006Z" stroke="#AEB1BB"/>
</svg>
