<svg width="24" height="24" viewBox="0 0 24 24" fill="none" xmlns="http://www.w3.org/2000/svg">
<path fill-rule="evenodd" clip-rule="evenodd" d="M5.09466 2.95312C3.91197 2.95312 2.95312 3.91197 2.95312 5.09466V18.9777C2.95312 20.1604 3.91197 21.1193 5.09466 21.1193H18.9777C20.1604 21.1193 21.1193 20.1604 21.1193 18.9777V5.09466C21.1193 3.91197 20.1604 2.95312 18.9777 2.95312H5.09466ZM6.53236 9.46428V17.427H8.7013V9.46428H6.53236ZM6.45808 7.46611C6.45808 8.09005 6.96317 8.58793 7.61683 8.58793C8.27048 8.58793 8.77558 8.09005 8.77558 7.46611C8.77558 6.83466 8.27048 6.34457 7.61683 6.34457C6.96317 6.34457 6.45808 6.83466 6.45808 7.46611ZM10.1497 9.46428V17.427H12.3186V12.8589C12.3186 11.8262 12.9352 11.1131 13.9083 11.1131C14.8813 11.1131 15.3715 11.7074 15.3715 12.7475V17.427H17.5405V12.2944C17.5405 10.43 16.5451 9.31572 14.7773 9.31572C13.5518 9.31572 12.7124 9.89524 12.2889 10.8829H12.2445V9.46428H10.1497Z" fill="#AFAFB6"/>
</svg>
