<svg width="20" height="20" viewBox="0 0 20 20" fill="none" xmlns="http://www.w3.org/2000/svg">
<path d="M6 14.1541L6 3.55692C6 3.07092 6.59128 2.81898 6.95362 3.15059L14.8192 10.3493C15.1771 10.677 14.9716 11.2655 14.4839 11.3092L11.5284 11.5739C11.5213 11.5746 11.517 11.5819 11.52 11.5883L13.3969 15.528C13.5294 15.8063 13.4067 16.1372 13.1229 16.267L11.6343 16.9478C11.3452 17.08 11.0019 16.9523 10.8748 16.6655L9.06686 12.584C9.064 12.5775 9.05544 12.5759 9.05026 12.5808L6.96003 14.5544C6.59997 14.8944 6 14.6442 6 14.1541Z" stroke="#AEB1BB"/>
</svg>
