<svg width="18" height="8" viewBox="0 0 18 8" fill="none" xmlns="http://www.w3.org/2000/svg">
<path d="M1 4.5C0.723858 4.5 0.5 4.27614 0.5 4C0.5 3.72386 0.723858 3.5 1 3.5L1 4.5ZM17.3536 3.64645C17.5488 3.84171 17.5488 4.15829 17.3536 4.35355L14.1716 7.53553C13.9763 7.7308 13.6597 7.7308 13.4645 7.53553C13.2692 7.34027 13.2692 7.02369 13.4645 6.82843L16.2929 4L13.4645 1.17157C13.2692 0.976311 13.2692 0.659728 13.4645 0.464466C13.6597 0.269204 13.9763 0.269204 14.1716 0.464466L17.3536 3.64645ZM1 3.5L17 3.5V4.5L1 4.5L1 3.5Z" fill="#AEB1BB"/>
</svg>
