<svg width="10" height="13" viewBox="0 0 10 13" fill="none" xmlns="http://www.w3.org/2000/svg">
<path d="M0.878735 11.9851C0.610838 11.9182 0.447955 11.6467 0.514928 11.3788C0.581901 11.1109 0.853367 10.948 1.12126 11.015L0.878735 11.9851ZM0.236822 4.92513C0.00202819 4.77978 -0.0704814 4.47162 0.0748677 4.23682L2.44347 0.410631C2.58882 0.175837 2.89698 0.103328 3.13178 0.248677C3.36657 0.394026 3.43908 0.702193 3.29373 0.936987L1.18831 4.33805L4.58937 6.44347C4.82416 6.58882 4.89667 6.89698 4.75132 7.13178C4.60597 7.36657 4.29781 7.43908 4.06301 7.29373L0.236822 4.92513ZM1 11.5001C1.12126 11.015 1.12114 11.015 1.12105 11.0149C1.12106 11.0149 1.121 11.0149 1.12101 11.0149C1.12105 11.0149 1.12121 11.015 1.12148 11.015C1.12204 11.0152 1.12307 11.0154 1.12457 11.0158C1.12757 11.0165 1.13244 11.0177 1.13913 11.0193C1.15251 11.0225 1.17315 11.0274 1.20056 11.0336C1.25539 11.046 1.33724 11.064 1.44223 11.0851C1.65236 11.1273 1.95427 11.182 2.31709 11.2311C3.04634 11.3299 4.00512 11.4036 4.95333 11.3147C5.90889 11.2251 6.79954 10.9753 7.44218 10.4732C8.05969 9.99076 8.5 9.23589 8.5 8.00001H9.5C9.5 9.51413 8.94031 10.5718 8.05782 11.2612C7.20046 11.931 6.09111 12.2124 5.04667 12.3104C3.99488 12.409 2.95366 12.3265 2.18291 12.2221C1.79573 12.1697 1.47264 12.1111 1.24527 12.0655C1.13151 12.0426 1.04148 12.0229 0.979124 12.0088C0.94794 12.0017 0.923657 11.996 0.906767 11.9919C0.898321 11.9899 0.891721 11.9883 0.88703 11.9872C0.884684 11.9866 0.882814 11.9861 0.88143 11.9858C0.880737 11.9856 0.880166 11.9855 0.879716 11.9854C0.879492 11.9853 0.879246 11.9853 0.879134 11.9852C0.87892 11.9852 0.878735 11.9851 1 11.5001ZM8.5 8.00001C8.5 6.77609 8.03813 6.02274 7.37568 5.53565C6.68501 5.0278 5.72815 4.77576 4.70605 4.68557C3.69232 4.59612 2.66861 4.67036 1.89134 4.76943C1.5044 4.81874 1.18238 4.8737 0.958126 4.9161C0.846075 4.93729 0.758646 4.9553 0.699961 4.96784C0.670625 4.97411 0.64849 4.97901 0.634073 4.98225C0.626865 4.98387 0.621589 4.98508 0.618308 4.98583C0.616667 4.98621 0.615526 4.98647 0.614892 4.98662C0.614575 4.9867 0.614384 4.98674 0.614322 4.98676C0.614291 4.98676 0.61434 4.98675 0.614324 4.98675C0.614406 4.98674 0.614519 4.98671 0.5 4.5C0.385481 4.01329 0.385659 4.01325 0.38587 4.0132C0.385984 4.01317 0.386227 4.01312 0.386454 4.01306C0.386909 4.01296 0.387492 4.01282 0.388205 4.01265C0.38963 4.01232 0.391569 4.01187 0.394014 4.01131C0.398904 4.01019 0.405819 4.00861 0.414694 4.00661C0.432443 4.00262 0.458038 3.99696 0.490957 3.98992C0.556784 3.97586 0.651972 3.95627 0.772343 3.93351C1.01293 3.88802 1.35498 3.8297 1.76491 3.77745C2.58139 3.67339 3.68268 3.59139 4.79395 3.68944C5.89685 3.78676 7.06499 4.06596 7.96807 4.72999C8.89937 5.41477 9.5 6.47393 9.5 8.00001H8.5Z" fill="#AEB1BB"/>
</svg>
