<svg width="14" height="15" viewBox="0 0 14 15" fill="none" xmlns="http://www.w3.org/2000/svg">
<path d="M1.51517 13.3769C1.24114 13.3428 0.99136 13.5373 0.957267 13.8114C0.923174 14.0854 1.11768 14.3352 1.39171 14.3693L1.51517 13.3769ZM0.573564 4.34816C0.429385 4.58367 0.503426 4.89148 0.73894 5.03566L4.57687 7.38519C4.81238 7.52937 5.12018 7.45533 5.26436 7.21982C5.40854 6.9843 5.3345 6.6765 5.09899 6.53232L1.6875 4.44384L3.77597 1.03235C3.92015 0.796839 3.84611 0.489037 3.6106 0.344858C3.37508 0.200678 3.06728 0.27472 2.9231 0.510234L0.573564 4.34816ZM1.45344 13.8731C1.39171 14.3693 1.3919 14.3693 1.39212 14.3693C1.39226 14.3693 1.39253 14.3694 1.3928 14.3694C1.39334 14.3695 1.39406 14.3696 1.39495 14.3697C1.39673 14.3699 1.3992 14.3702 1.40236 14.3706C1.40869 14.3713 1.41775 14.3724 1.42948 14.3737C1.45293 14.3764 1.487 14.3802 1.531 14.3848C1.61899 14.3941 1.74672 14.4065 1.90853 14.4199C2.23202 14.4465 2.69246 14.4767 3.24442 14.4912C4.34549 14.5203 5.82385 14.4875 7.31041 14.2351C8.78947 13.984 10.3235 13.508 11.4979 12.6176C12.6955 11.7097 13.5 10.3827 13.5 8.51614H12.5C12.5 10.0464 11.8612 11.0873 10.8938 11.8207C9.90323 12.5717 8.55061 13.0103 7.14304 13.2492C5.74295 13.4869 4.33467 13.5196 3.27076 13.4916C2.74023 13.4776 2.2986 13.4486 1.99064 13.4232C1.83672 13.4106 1.71638 13.3988 1.63523 13.3903C1.59466 13.386 1.5639 13.3826 1.54365 13.3803C1.53353 13.3791 1.52603 13.3782 1.52126 13.3777C1.51887 13.3774 1.51716 13.3772 1.51614 13.377C1.51563 13.377 1.5153 13.3769 1.51514 13.3769C1.51505 13.3769 1.51506 13.3769 1.51502 13.3769C1.51508 13.3769 1.51517 13.3769 1.45344 13.8731ZM13.5 8.51614C13.5 6.63615 12.6528 5.38425 11.385 4.61256C10.1534 3.86297 8.55328 3.5807 7.02124 3.51556C5.4784 3.44997 3.94458 3.60266 2.80267 3.7696C2.23019 3.85329 1.75274 3.94109 1.41751 4.00818C1.24983 4.04173 1.11755 4.07014 1.02655 4.09031C0.981049 4.1004 0.94585 4.10843 0.921694 4.11402C0.909615 4.11682 0.900296 4.119 0.893827 4.12053C0.890592 4.12129 0.88807 4.12189 0.886272 4.12232C0.885373 4.12253 0.884655 4.1227 0.884119 4.12283C0.883852 4.1229 0.883587 4.12296 0.883453 4.12299C0.883234 4.12304 0.883061 4.12309 1 4.60922C1.11694 5.09535 1.11686 5.09537 1.11682 5.09538C1.11687 5.09537 1.11688 5.09537 1.11698 5.09534C1.11717 5.0953 1.11755 5.09521 1.1181 5.09508C1.11921 5.09481 1.12104 5.09438 1.12357 5.09378C1.12864 5.09258 1.13653 5.09073 1.14715 5.08827C1.16841 5.08335 1.20059 5.07601 1.24298 5.06661C1.32776 5.04782 1.45329 5.02084 1.61374 4.98873C1.93476 4.92449 2.39481 4.83985 2.94733 4.75908C4.05542 4.59708 5.5216 4.45271 6.97876 4.51466C8.44672 4.57707 9.84664 4.84694 10.865 5.46678C11.8472 6.06453 12.5 6.99937 12.5 8.51614H13.5Z" fill="#AEB1BB"/>
</svg>
